<?xml version="1.0" encoding="UTF-8"?>
<!DOCTYPE svg PUBLIC "-//W3C//DTD SVG 1.1//EN" "http://www.w3.org/Graphics/SVG/1.1/DTD/svg11.dtd">
<!-- Creator: CorelDRAW -->
<svg xmlns="http://www.w3.org/2000/svg" xml:space="preserve" width="2083px" height="2083px" version="1.1" style="shape-rendering:geometricPrecision; text-rendering:geometricPrecision; image-rendering:optimizeQuality; fill-rule:evenodd; clip-rule:evenodd"
viewBox="0 0 2083 2083"
 xmlns:xlink="http://www.w3.org/1999/xlink"
 xmlns:xodm="http://www.corel.com/coreldraw/odm/2003">
 <defs>
  <style type="text/css">
   <![CDATA[
    .fil14 {fill:#FEFEFE;fill-rule:nonzero}
    .fil32 {fill:#FFD89D;fill-rule:nonzero}
    .fil23 {fill:#FFD589;fill-rule:nonzero}
    .fil31 {fill:#FFD176;fill-rule:nonzero}
    .fil22 {fill:#FEC752;fill-rule:nonzero}
    .fil39 {fill:#FCBA49;fill-rule:nonzero}
    .fil42 {fill:#FBB25C;fill-rule:nonzero}
    .fil48 {fill:#FBB143;fill-rule:nonzero}
    .fil19 {fill:#F9B098;fill-rule:nonzero}
    .fil27 {fill:#F7A189;fill-rule:nonzero}
    .fil34 {fill:#F69B88;fill-rule:nonzero}
    .fil41 {fill:#F79838;fill-rule:nonzero}
    .fil40 {fill:#F6957B;fill-rule:nonzero}
    .fil18 {fill:#F05667;fill-rule:nonzero}
    .fil26 {fill:#EF4D5A;fill-rule:nonzero}
    .fil44 {fill:#F9F8F8;fill-rule:nonzero}
    .fil46 {fill:#F7AE31;fill-rule:nonzero}
    .fil28 {fill:#F2B948;fill-rule:nonzero}
    .fil15 {fill:#EEEEF2;fill-rule:nonzero}
    .fil2 {fill:#EEEEEF;fill-rule:nonzero}
    .fil0 {fill:#E9F6FD;fill-rule:nonzero}
    .fil7 {fill:#E8E8E9;fill-rule:nonzero}
    .fil29 {fill:#E4F4FD;fill-rule:nonzero}
    .fil47 {fill:#E5E6E7;fill-rule:nonzero}
    .fil24 {fill:#E0E4F3;fill-rule:nonzero}
    .fil4 {fill:#E2E3E4;fill-rule:nonzero}
    .fil37 {fill:#E0E1E3;fill-rule:nonzero}
    .fil10 {fill:#D43D44;fill-rule:nonzero}
    .fil33 {fill:#DCE0EA;fill-rule:nonzero}
    .fil9 {fill:#DDE0E2;fill-rule:nonzero}
    .fil35 {fill:#D4D5D7;fill-rule:nonzero}
    .fil11 {fill:#D2D4D5;fill-rule:nonzero}
    .fil5 {fill:#CECFD0;fill-rule:nonzero}
    .fil30 {fill:#CACED6;fill-rule:nonzero}
    .fil12 {fill:#B43437;fill-rule:nonzero}
    .fil21 {fill:#C8CAD4;fill-rule:nonzero}
    .fil38 {fill:#5B3A34;fill-rule:nonzero}
    .fil17 {fill:#8B8DAB;fill-rule:nonzero}
    .fil20 {fill:#7377B1;fill-rule:nonzero}
    .fil16 {fill:#525372;fill-rule:nonzero}
    .fil1 {fill:#4C4E68;fill-rule:nonzero}
    .fil25 {fill:#444560;fill-rule:nonzero}
    .fil43 {fill:#3D3B54;fill-rule:nonzero}
    .fil45 {fill:#4461AB;fill-rule:nonzero}
    .fil3 {fill:#27262D;fill-rule:nonzero}
    .fil49 {fill:#00AC78;fill-rule:nonzero}
    .fil13 {fill:#344162;fill-rule:nonzero}
    .fil50 {fill:#00A962;fill-rule:nonzero}
    .fil8 {fill:#0181E9;fill-rule:nonzero}
    .fil6 {fill:#0596FD;fill-rule:nonzero}
    .fil36 {fill:#FDC008;fill-rule:nonzero}
   ]]>
  </style>
    <clipPath id="id0">
     <path d="M1171.08 783.94l-394.76 0 0 -62.82 394.76 0 0 62.82 0 0z"/>
    </clipPath>
    <clipPath id="id1">
     <path d="M1171.08 837.92l-394.76 0 0 -31.4 394.76 0 0 31.4 0 0z"/>
    </clipPath>
    <clipPath id="id2">
     <path d="M1171.08 897.5l-394.76 0 0 -31.41 394.76 0 0 31.41 0 0z"/>
    </clipPath>
    <clipPath id="id3">
     <path d="M1171.08 1653.29l-394.76 0 0 -10.32 73.43 -39.87 321.33 0 0 50.19 0 0z"/>
    </clipPath>
    <clipPath id="id4">
     <path d="M776.31 1642.96l0 -19.01 38.42 -20.85 35.04 0 -73.46 39.86 0 0z"/>
    </clipPath>
 </defs>
 <g id="Camada_x0020_1">
  <metadata id="CorelCorpID_0Corel-Layer"/>
  <g id="_2555203848016">
   <path class="fil0" d="M647.22 331.94c-75.7,25.23 -154.72,74.11 -169.34,152.57 -18.28,98.12 72.9,189.6 62.48,288.87 -7.73,73.76 -68.28,128.65 -112.54,188.17 -54.97,73.92 -88.4,167.05 -76.87,258.45 9.53,75.52 48.3,144.09 91.29,206.9 29.83,43.59 63.29,86.62 108.87,113.3 45.4,26.57 99.15,34.73 151.66,37.87 85.98,5.14 172.68,-1.83 256.73,-20.66 124.09,-27.8 245.17,-81.57 372.23,-76.08 111.49,4.82 223.4,55.27 331.28,26.71 18.53,-4.9 36.81,-12.3 51.31,-24.84 16.87,-14.59 27.45,-35.04 36.27,-55.53 62.67,-145.61 46.41,-332.7 -69.64,-440.69 -70.25,-65.37 -170.41,-98.46 -224.13,-177.97 -65.36,-96.73 -39.84,-226.49 -65.95,-340.28 -6.2,-27.04 -15.8,-54.05 -33.83,-75.14 -21.94,-25.68 -54,-40.04 -85.09,-53.26 -53.07,-22.57 -107.77,-41.79 -166.28,-38.61 -39.48,2.15 -73.79,11.81 -113.81,8.01 -119.64,-11.35 -228.23,-16.6 -344.64,22.21z"/>
   <path class="fil1" d="M1473.89 594.64c13.11,70.54 -33.45,138.35 -104,151.46 -70.54,13.11 -138.35,-33.46 -151.47,-104 -13.1,-70.54 33.46,-138.36 104.01,-151.46 70.54,-13.11 138.35,33.45 151.46,104z"/>
   <path class="fil2" d="M1459.18 597.37c11.6,62.42 -29.6,122.42 -92.02,134.02 -62.42,11.6 -122.43,-29.6 -134.02,-92.02 -11.61,-62.43 29.59,-122.43 92.02,-134.03 62.42,-11.59 122.42,29.61 134.02,92.03z"/>
   <path class="fil3" d="M1345.67 733.41c-29.54,0 -57.31,-11.44 -78.14,-30.78l0 -0.39c20.87,19.54 48.78,31.11 78.5,31.11 6.84,0 13.8,-0.62 20.77,-1.89 -7.1,1.31 -14.16,1.95 -21.13,1.95z"/>
   <path class="fil4" d="M1346.03 733.35c-29.72,0 -57.63,-11.57 -78.5,-31.11l0 -3.61c20.73,18.87 48.13,30 77.27,30 6.96,0 14.02,-0.64 21.12,-1.96 60.9,-11.31 101.56,-68.71 92.74,-129.47 0.13,0.47 0.26,0.94 0.38,1.41 10.87,62 -30.2,121.32 -92.23,132.85 -0.01,0 -0.01,0 -0.01,0 -6.97,1.27 -13.93,1.89 -20.77,1.89z"/>
   <path class="fil3" d="M1459.15 597.19c-0.03,-0.15 -0.06,-0.29 -0.08,-0.44 0.02,0.15 0.05,0.29 0.08,0.44zm-0.16 -0.87c-0.02,-0.05 -0.03,-0.11 -0.04,-0.17 0.01,0.06 0.02,0.12 0.04,0.17zm-133.83 -90.98c7.1,-1.32 14.16,-1.95 21.12,-1.95 -6.96,0 -14.03,0.64 -21.12,1.95zm21.15 -1.95c-0.01,0 -0.01,0 -0.02,0l0 0c0.01,0 0.01,0 0.02,0z"/>
   <path class="fil4" d="M1459.98 602.38c-0.29,-1.27 -0.61,-2.52 -0.94,-3.77 -0.07,-0.4 -0.14,-0.79 -0.21,-1.18 -0.15,-0.8 -0.34,-1.58 -0.51,-2.38 0.13,0.72 0.23,1.44 0.34,2.15 -13.97,-49.85 -59.59,-83.83 -110.52,-83.83 -6.96,0 -14.04,0.64 -21.13,1.95 -41,7.63 -72.84,36.13 -86.58,72.49 -1.34,-1.14 -2.73,-2.24 -4.16,-3.29 12.21,-39.52 45.4,-71.1 88.89,-79.18l0 0c7.09,-1.31 14.16,-1.95 21.12,-1.95l0.01 0c0.01,0 0.01,0 0.02,0 53.9,0.01 101.88,38.1 112.64,92.76 0.01,0.06 0.02,0.12 0.04,0.17 0.02,0.15 0.05,0.29 0.08,0.43 0.02,0.15 0.05,0.29 0.08,0.44 0.01,0.06 0.02,0.12 0.03,0.18 0.32,1.67 0.56,3.34 0.8,5.01z"/>
   <path class="fil5" d="M1459.04 598.61c-0.12,-0.47 -0.25,-0.94 -0.38,-1.41 -0.11,-0.71 -0.21,-1.43 -0.34,-2.15 0.17,0.8 0.36,1.58 0.51,2.38 0.07,0.39 0.14,0.78 0.21,1.18z"/>
   <path class="fil6" d="M1333.98 551.02l0 0c-2.12,0.38 -4.17,-1.04 -4.56,-3.16l-3.96 -21.95c-0.39,-2.12 1.03,-4.17 3.16,-4.55 2.12,-0.39 4.17,1.04 4.55,3.16l3.97 21.94c0.38,2.12 -1.04,4.17 -3.16,4.56z"/>
   <path class="fil6" d="M1363.98 716.93l0 0c-2.12,0.38 -4.17,-1.04 -4.56,-3.17l-3.96 -21.94c-0.39,-2.12 1.03,-4.17 3.16,-4.56 2.12,-0.38 4.17,1.04 4.55,3.17l3.97 21.94c0.39,2.12 -1.04,4.17 -3.16,4.56z"/>
   <path class="fil6" d="M1422.96 605.28l0 0c-0.38,-2.12 1.04,-4.17 3.16,-4.56l21.95 -3.97c2.12,-0.38 4.17,1.04 4.55,3.17 0.38,2.12 -1.04,4.17 -3.16,4.55l-21.94 3.97c-2.12,0.38 -4.17,-1.04 -4.56,-3.16z"/>
   <path class="fil6" d="M1240.36 638.3l0 0c-0.39,-2.13 1.04,-4.17 3.16,-4.56l21.94 -3.97c2.12,-0.38 4.17,1.04 4.56,3.16 0.38,2.13 -1.04,4.18 -3.17,4.56l-21.94 3.96c-2.12,0.39 -4.17,-1.03 -4.55,-3.15z"/>
   <path class="fil6" d="M1391.09 555.2l0 0c-1.78,-1.23 -2.22,-3.68 -0.99,-5.46l12.71 -18.32c1.23,-1.77 3.68,-2.21 5.46,-0.98 1.77,1.22 2.21,3.68 0.98,5.45l-12.71 18.32c-1.23,1.78 -3.68,2.22 -5.45,0.99z"/>
   <path class="fil6" d="M1285.31 707.67l0 0c-1.77,-1.23 -2.21,-3.69 -0.98,-5.46l12.71 -18.32c1.23,-1.77 3.68,-2.22 5.45,-0.99 1.78,1.23 2.22,3.69 0.99,5.46l-12.71 18.32c-1.23,1.77 -3.68,2.22 -5.46,0.99z"/>
   <path class="fil6" d="M1410.24 663.93l0 0c1.22,-1.77 3.68,-2.22 5.45,-0.99l18.33 12.71c1.77,1.23 2.21,3.69 0.98,5.46 -1.23,1.77 -3.68,2.21 -5.45,0.98l-18.32 -12.71c-1.78,-1.22 -2.22,-3.68 -0.99,-5.45z"/>
   <path class="fil6" d="M1257.77 558.16l0 0c1.23,-1.78 3.69,-2.22 5.46,-0.99l18.32 12.71c1.77,1.23 2.21,3.68 0.99,5.46 -1.23,1.77 -3.69,2.21 -5.46,0.98l-18.32 -12.71c-1.78,-1.23 -2.22,-3.68 -0.99,-5.45z"/>
   <path class="fil7" d="M1301.15 637.87c-1.44,0 -2.81,-0.41 -3.99,-1.15l34.31 -6.2c-0.14,0.66 -0.17,1.34 -0.08,2l-28.9 5.23c-0.45,0.08 -0.9,0.12 -1.34,0.12z"/>
   <path class="fil6" d="M1366.89 616.43c0.74,4.1 -2,8.05 -6.1,8.79l-64.44 11.65c-4.1,0.74 -8.06,-2 -8.8,-6.1 -0.74,-4.09 2.01,-8.04 6.1,-8.78l64.45 -11.65c4.09,-0.75 8.05,2 8.79,6.09z"/>
   <path class="fil7" d="M1363.31 611.28c-0.43,-0.25 -0.89,-0.47 -1.37,-0.64l30.34 -38.05c0.18,-0.22 0.34,-0.46 0.48,-0.7 0.08,1.43 -0.35,2.89 -1.3,4.09l-28.15 35.3z"/>
   <path class="fil8" d="M1358.74 617.02c-0.2,-0.51 -0.43,-1.01 -0.7,-1.47l3.9 -4.91c0.48,0.17 0.94,0.39 1.37,0.64l-4.57 5.74z"/>
   <path class="fil6" d="M1333.61 636.49c-2.6,-2.08 -3.03,-5.9 -0.96,-8.5l50.17 -62.93c2.07,-2.61 5.9,-3.04 8.5,-0.97 2.6,2.08 3.03,5.9 0.96,8.5l-50.17 62.94c-2.07,2.6 -5.9,3.03 -8.5,0.96z"/>
   <path class="fil7" d="M1348.39 632.12c-1.1,0 -2.17,-0.16 -3.19,-0.47l1.6 -2.01c1.41,-0.49 2.61,-1.39 3.48,-2.52l8.21 -1.48c-1.46,3.18 -4.4,5.63 -8.12,6.3 -0.67,0.12 -1.33,0.18 -1.98,0.18z"/>
   <path class="fil9" d="M1346.8 629.64l1.66 -2.08c0.36,-0.06 0.73,-0.17 1.08,-0.31l0.74 -0.13c-0.87,1.13 -2.07,2.03 -3.48,2.52z"/>
   <path class="fil8" d="M1349.54 627.25c0.96,-0.37 1.84,-0.99 2.53,-1.85l6.67 -8.38c0.25,0.65 0.44,1.33 0.57,2.04 0.42,2.31 0.09,4.59 -0.82,6.58l-8.21 1.48 -0.74 0.13z"/>
   <path class="fil7" d="M1340.2 613.57c1.58,-1.74 3.73,-3 6.23,-3.45 0.18,-0.03 0.35,-0.06 0.53,-0.08l-2.15 2.7 -4.61 0.83z"/>
   <path class="fil10" d="M1337.36 622.07c-0.3,-3.19 0.8,-6.25 2.84,-8.5l4.61 -0.83 -7.45 9.33z"/>
   <path class="fil11" d="M1348.46 627.56l0.11 -0.13 0.97 -0.18c-0.35,0.14 -0.72,0.25 -1.08,0.31z"/>
   <path class="fil12" d="M1348.57 627.43l9.47 -11.88c0.27,0.46 0.5,0.96 0.7,1.47l-6.67 8.38c-0.69,0.86 -1.57,1.48 -2.53,1.85l-0.97 0.18z"/>
   <path class="fil8" d="M1345.2 631.65c-3.86,-1.17 -6.94,-4.41 -7.71,-8.65 -0.06,-0.31 -0.1,-0.62 -0.13,-0.93l7.45 -9.33 2.15 -2.7c0.49,-0.07 0.98,-0.1 1.46,-0.1 4.01,0 7.67,2.19 9.62,5.61l-9.47 11.88 -0.11 0.13 -1.66 2.08 -1.6 2.01z"/>
   <path class="fil13" d="M1358.8 617.89c1.09,6.03 -2.91,11.8 -8.94,12.88 -6.03,1.09 -11.79,-2.9 -12.88,-8.93 -1.09,-6.03 2.91,-11.8 8.94,-12.88 6.02,-1.1 11.79,2.91 12.88,8.93z"/>
   <path class="fil14" d="M1354.22 618.72c0.63,3.5 -1.69,6.85 -5.19,7.47 -3.5,0.64 -6.84,-1.68 -7.48,-5.18 -0.62,-3.5 1.7,-6.84 5.19,-7.48 3.5,-0.63 6.85,1.69 7.48,5.19z"/>
   <path class="fil15" d="M973.71 1807.72c-209.16,0 -378.71,-20.04 -378.71,-44.78 0,-11.4 36,-21.8 95.28,-29.7 13.3,22.8 38.03,38.13 66.32,38.13l434.23 0c28.29,0 53,-15.33 66.29,-38.14 59.3,7.91 95.3,18.31 95.3,29.71 0,24.74 -169.56,44.78 -378.71,44.78z"/>
   <path class="fil16" d="M1267.53 646.34l0 1048.29c0,42.37 -34.34,76.74 -76.7,76.74l-434.23 0c-42.37,0 -76.73,-34.37 -76.73,-76.74l0 -1048.29c0,-26.62 13.58,-50.12 34.2,-63.83 12.2,-8.16 26.83,-12.91 42.53,-12.91l434.23 0c42.36,0 76.7,34.37 76.7,76.74z"/>
   <path class="fil14" d="M1181.33 1746.59l-415.23 0c-32.23,0 -58.36,-26.12 -58.36,-58.36l0 -1032.51c0,-32.23 26.13,-58.36 58.36,-58.36l415.23 0c32.22,0 58.35,26.13 58.35,58.36l0 1032.51c0,32.24 -26.13,58.36 -58.35,58.36z"/>
   <path class="fil16" d="M1071.58 633.62l-195.73 0c-8.65,0 -15.66,-7.01 -15.66,-15.65l0 -33.36 227.04 0 0 33.36c0,8.64 -7,15.65 -15.65,15.65z"/>
   <path class="fil17" d="M1008.6 618.37l-93.02 0c-3.73,0 -6.76,-3.02 -6.76,-6.76 0,-3.72 3.03,-6.74 6.76,-6.74l93.02 0c3.72,0 6.75,3.02 6.75,6.74 0,3.74 -3.03,6.76 -6.75,6.76z"/>
   <path class="fil17" d="M1031.85 618.37c-3.73,0 -6.75,-3.02 -6.75,-6.76 0,-3.72 3.02,-6.74 6.75,-6.74 3.73,0 6.75,3.02 6.75,6.74 0,3.74 -3.02,6.76 -6.75,6.76z"/>
   <polygon class="fil6" points="776.3,968.64 792.09,968.64 792.09,952.85 776.3,952.85 "/>
   <polygon class="fil6" points="792.09,968.64 807.89,968.64 807.89,952.85 792.09,952.85 "/>
   <polygon class="fil6" points="807.89,968.64 823.68,968.64 823.68,952.85 807.89,952.85 "/>
   <polygon class="fil6" points="823.68,968.64 839.47,968.64 839.47,952.85 823.68,952.85 "/>
   <polygon class="fil6" points="839.47,968.64 855.27,968.64 855.27,952.85 839.47,952.85 "/>
   <polygon class="fil6" points="855.27,968.64 871.06,968.64 871.06,952.85 855.27,952.85 "/>
   <polygon class="fil6" points="871.06,968.64 886.85,968.64 886.85,952.85 871.06,952.85 "/>
   <polygon class="fil6" points="902.64,968.64 918.44,968.64 918.44,952.85 902.64,952.85 "/>
   <polygon class="fil6" points="918.44,968.64 934.23,968.64 934.23,952.85 918.44,952.85 "/>
   <polygon class="fil6" points="934.23,968.64 950.02,968.64 950.02,952.85 934.23,952.85 "/>
   <polygon class="fil6" points="950.02,968.64 965.81,968.64 965.81,952.85 950.02,952.85 "/>
   <polygon class="fil6" points="997.4,968.64 1013.19,968.64 1013.19,952.85 997.4,952.85 "/>
   <polygon class="fil6" points="1060.57,968.64 1076.36,968.64 1076.36,952.85 1060.57,952.85 "/>
   <polygon class="fil6" points="1076.36,968.64 1092.15,968.64 1092.15,952.85 1076.36,952.85 "/>
   <polygon class="fil6" points="1092.15,968.64 1107.95,968.64 1107.95,952.85 1092.15,952.85 "/>
   <polygon class="fil6" points="1107.95,968.64 1123.74,968.64 1123.74,952.85 1107.95,952.85 "/>
   <polygon class="fil6" points="1123.74,968.64 1139.53,968.64 1139.53,952.85 1123.74,952.85 "/>
   <polygon class="fil6" points="1139.53,968.64 1155.32,968.64 1155.32,952.85 1139.53,952.85 "/>
   <polygon class="fil6" points="1155.32,968.64 1171.12,968.64 1171.12,952.85 1155.32,952.85 "/>
   <polygon class="fil6" points="776.3,984.44 792.09,984.44 792.09,968.64 776.3,968.64 "/>
   <polygon class="fil6" points="871.06,984.44 886.85,984.44 886.85,968.64 871.06,968.64 "/>
   <polygon class="fil6" points="950.02,984.44 965.81,984.44 965.81,968.64 950.02,968.64 "/>
   <polygon class="fil6" points="965.81,984.44 981.6,984.44 981.6,968.64 965.81,968.64 "/>
   <polygon class="fil6" points="997.4,984.44 1013.19,984.44 1013.19,968.64 997.4,968.64 "/>
   <polygon class="fil6" points="1028.98,984.44 1044.77,984.44 1044.77,968.64 1028.98,968.64 "/>
   <polygon class="fil6" points="1060.57,984.44 1076.36,984.44 1076.36,968.64 1060.57,968.64 "/>
   <polygon class="fil6" points="1155.32,984.44 1171.12,984.44 1171.12,968.64 1155.32,968.64 "/>
   <polygon class="fil6" points="776.3,1000.23 792.09,1000.23 792.09,984.44 776.3,984.44 "/>
   <polygon class="fil6" points="807.89,1000.23 823.68,1000.23 823.68,984.44 807.89,984.44 "/>
   <polygon class="fil6" points="823.68,1000.23 839.47,1000.23 839.47,984.44 823.68,984.44 "/>
   <polygon class="fil6" points="839.47,1000.23 855.27,1000.23 855.27,984.44 839.47,984.44 "/>
   <polygon class="fil6" points="871.06,1000.23 886.85,1000.23 886.85,984.44 871.06,984.44 "/>
   <polygon class="fil6" points="918.44,1000.23 934.23,1000.23 934.23,984.44 918.44,984.44 "/>
   <polygon class="fil6" points="950.02,1000.23 965.81,1000.23 965.81,984.44 950.02,984.44 "/>
   <polygon class="fil6" points="981.6,1000.23 997.4,1000.23 997.4,984.44 981.6,984.44 "/>
   <polygon class="fil6" points="997.4,1000.23 1013.19,1000.23 1013.19,984.44 997.4,984.44 "/>
   <polygon class="fil6" points="1013.19,1000.23 1028.98,1000.23 1028.98,984.44 1013.19,984.44 "/>
   <polygon class="fil6" points="1028.98,1000.23 1044.77,1000.23 1044.77,984.44 1028.98,984.44 "/>
   <polygon class="fil6" points="1060.57,1000.23 1076.36,1000.23 1076.36,984.44 1060.57,984.44 "/>
   <polygon class="fil6" points="1092.15,1000.23 1107.95,1000.23 1107.95,984.44 1092.15,984.44 "/>
   <polygon class="fil6" points="1107.95,1000.23 1123.74,1000.23 1123.74,984.44 1107.95,984.44 "/>
   <polygon class="fil6" points="1123.74,1000.23 1139.53,1000.23 1139.53,984.44 1123.74,984.44 "/>
   <polygon class="fil6" points="1155.32,1000.23 1171.12,1000.23 1171.12,984.44 1155.32,984.44 "/>
   <polygon class="fil6" points="776.3,1016.02 792.09,1016.02 792.09,1000.23 776.3,1000.23 "/>
   <polygon class="fil6" points="807.89,1016.02 823.68,1016.02 823.68,1000.23 807.89,1000.23 "/>
   <polygon class="fil6" points="823.68,1016.02 839.47,1016.02 839.47,1000.23 823.68,1000.23 "/>
   <polygon class="fil6" points="839.47,1016.02 855.27,1016.02 855.27,1000.23 839.47,1000.23 "/>
   <polygon class="fil6" points="871.06,1016.02 886.85,1016.02 886.85,1000.23 871.06,1000.23 "/>
   <polygon class="fil6" points="934.23,1016.02 950.02,1016.02 950.02,1000.23 934.23,1000.23 "/>
   <polygon class="fil6" points="950.02,1016.02 965.81,1016.02 965.81,1000.23 950.02,1000.23 "/>
   <polygon class="fil6" points="981.6,1016.02 997.4,1016.02 997.4,1000.23 981.6,1000.23 "/>
   <polygon class="fil6" points="997.4,1016.02 1013.19,1016.02 1013.19,1000.23 997.4,1000.23 "/>
   <polygon class="fil6" points="1013.19,1016.02 1028.98,1016.02 1028.98,1000.23 1013.19,1000.23 "/>
   <polygon class="fil6" points="1028.98,1016.02 1044.77,1016.02 1044.77,1000.23 1028.98,1000.23 "/>
   <polygon class="fil6" points="1060.57,1016.02 1076.36,1016.02 1076.36,1000.23 1060.57,1000.23 "/>
   <polygon class="fil6" points="1092.15,1016.02 1107.95,1016.02 1107.95,1000.23 1092.15,1000.23 "/>
   <polygon class="fil6" points="1107.95,1016.02 1123.74,1016.02 1123.74,1000.23 1107.95,1000.23 "/>
   <polygon class="fil6" points="1123.74,1016.02 1139.53,1016.02 1139.53,1000.23 1123.74,1000.23 "/>
   <polygon class="fil6" points="1155.32,1016.02 1171.12,1016.02 1171.12,1000.23 1155.32,1000.23 "/>
   <polygon class="fil6" points="776.3,1031.82 792.09,1031.82 792.09,1016.02 776.3,1016.02 "/>
   <polygon class="fil6" points="807.89,1031.82 823.68,1031.82 823.68,1016.02 807.89,1016.02 "/>
   <polygon class="fil6" points="823.68,1031.82 839.47,1031.82 839.47,1016.02 823.68,1016.02 "/>
   <polygon class="fil6" points="839.47,1031.82 855.27,1031.82 855.27,1016.02 839.47,1016.02 "/>
   <polygon class="fil6" points="871.06,1031.82 886.85,1031.82 886.85,1016.02 871.06,1016.02 "/>
   <polygon class="fil6" points="934.23,1031.82 950.02,1031.82 950.02,1016.02 934.23,1016.02 "/>
   <polygon class="fil6" points="950.02,1031.82 965.81,1031.82 965.81,1016.02 950.02,1016.02 "/>
   <polygon class="fil6" points="965.81,1031.82 981.6,1031.82 981.6,1016.02 965.81,1016.02 "/>
   <polygon class="fil6" points="981.6,1031.82 997.4,1031.82 997.4,1016.02 981.6,1016.02 "/>
   <polygon class="fil6" points="997.4,1031.82 1013.19,1031.82 1013.19,1016.02 997.4,1016.02 "/>
   <polygon class="fil6" points="1028.98,1031.82 1044.77,1031.82 1044.77,1016.02 1028.98,1016.02 "/>
   <polygon class="fil6" points="1060.57,1031.82 1076.36,1031.82 1076.36,1016.02 1060.57,1016.02 "/>
   <polygon class="fil6" points="1092.15,1031.82 1107.95,1031.82 1107.95,1016.02 1092.15,1016.02 "/>
   <polygon class="fil6" points="1107.95,1031.82 1123.74,1031.82 1123.74,1016.02 1107.95,1016.02 "/>
   <polygon class="fil6" points="1123.74,1031.82 1139.53,1031.82 1139.53,1016.02 1123.74,1016.02 "/>
   <polygon class="fil6" points="1155.32,1031.82 1171.12,1031.82 1171.12,1016.02 1155.32,1016.02 "/>
   <polygon class="fil6" points="776.3,1047.61 792.09,1047.61 792.09,1031.82 776.3,1031.82 "/>
   <polygon class="fil6" points="871.06,1047.61 886.85,1047.61 886.85,1031.82 871.06,1031.82 "/>
   <polygon class="fil6" points="918.44,1047.61 934.23,1047.61 934.23,1031.82 918.44,1031.82 "/>
   <polygon class="fil6" points="950.02,1047.61 965.81,1047.61 965.81,1031.82 950.02,1031.82 "/>
   <polygon class="fil6" points="981.6,1047.61 997.4,1047.61 997.4,1031.82 981.6,1031.82 "/>
   <polygon class="fil6" points="997.4,1047.61 1013.19,1047.61 1013.19,1031.82 997.4,1031.82 "/>
   <polygon class="fil6" points="1028.98,1047.61 1044.77,1047.61 1044.77,1031.82 1028.98,1031.82 "/>
   <polygon class="fil6" points="1060.57,1047.61 1076.36,1047.61 1076.36,1031.82 1060.57,1031.82 "/>
   <polygon class="fil6" points="1155.32,1047.61 1171.12,1047.61 1171.12,1031.82 1155.32,1031.82 "/>
   <polygon class="fil6" points="776.3,1063.4 792.09,1063.4 792.09,1047.61 776.3,1047.61 "/>
   <polygon class="fil6" points="792.09,1063.4 807.89,1063.4 807.89,1047.61 792.09,1047.61 "/>
   <polygon class="fil6" points="807.89,1063.4 823.68,1063.4 823.68,1047.61 807.89,1047.61 "/>
   <polygon class="fil6" points="823.68,1063.4 839.47,1063.4 839.47,1047.61 823.68,1047.61 "/>
   <polygon class="fil6" points="839.47,1063.4 855.27,1063.4 855.27,1047.61 839.47,1047.61 "/>
   <polygon class="fil6" points="855.27,1063.4 871.06,1063.4 871.06,1047.61 855.27,1047.61 "/>
   <polygon class="fil6" points="871.06,1063.4 886.85,1063.4 886.85,1047.61 871.06,1047.61 "/>
   <polygon class="fil6" points="902.64,1063.4 918.44,1063.4 918.44,1047.61 902.64,1047.61 "/>
   <polygon class="fil6" points="934.23,1063.4 950.02,1063.4 950.02,1047.61 934.23,1047.61 "/>
   <polygon class="fil6" points="965.81,1063.4 981.6,1063.4 981.6,1047.61 965.81,1047.61 "/>
   <polygon class="fil6" points="997.4,1063.4 1013.19,1063.4 1013.19,1047.61 997.4,1047.61 "/>
   <polygon class="fil6" points="1028.98,1063.4 1044.77,1063.4 1044.77,1047.61 1028.98,1047.61 "/>
   <polygon class="fil6" points="1060.57,1063.4 1076.36,1063.4 1076.36,1047.61 1060.57,1047.61 "/>
   <polygon class="fil6" points="1076.36,1063.4 1092.15,1063.4 1092.15,1047.61 1076.36,1047.61 "/>
   <polygon class="fil6" points="1092.15,1063.4 1107.95,1063.4 1107.95,1047.61 1092.15,1047.61 "/>
   <polygon class="fil6" points="1107.95,1063.4 1123.74,1063.4 1123.74,1047.61 1107.95,1047.61 "/>
   <polygon class="fil6" points="1123.74,1063.4 1139.53,1063.4 1139.53,1047.61 1123.74,1047.61 "/>
   <polygon class="fil6" points="1139.53,1063.4 1155.32,1063.4 1155.32,1047.61 1139.53,1047.61 "/>
   <polygon class="fil6" points="1155.32,1063.4 1171.12,1063.4 1171.12,1047.61 1155.32,1047.61 "/>
   <polygon class="fil6" points="902.64,1079.19 918.44,1079.19 918.44,1063.4 902.64,1063.4 "/>
   <polygon class="fil6" points="918.44,1079.19 934.23,1079.19 934.23,1063.4 918.44,1063.4 "/>
   <polygon class="fil6" points="965.81,1079.19 981.6,1079.19 981.6,1063.4 965.81,1063.4 "/>
   <polygon class="fil6" points="981.6,1079.19 997.4,1079.19 997.4,1063.4 981.6,1063.4 "/>
   <polygon class="fil6" points="997.4,1079.19 1013.19,1079.19 1013.19,1063.4 997.4,1063.4 "/>
   <polygon class="fil6" points="776.3,1094.99 792.09,1094.99 792.09,1079.19 776.3,1079.19 "/>
   <polygon class="fil6" points="792.09,1094.99 807.89,1094.99 807.89,1079.19 792.09,1079.19 "/>
   <polygon class="fil6" points="823.68,1094.99 839.47,1094.99 839.47,1079.19 823.68,1079.19 "/>
   <polygon class="fil6" points="839.47,1094.99 855.27,1094.99 855.27,1079.19 839.47,1079.19 "/>
   <polygon class="fil6" points="871.06,1094.99 886.85,1094.99 886.85,1079.19 871.06,1079.19 "/>
   <polygon class="fil6" points="918.44,1094.99 934.23,1094.99 934.23,1079.19 918.44,1079.19 "/>
   <polygon class="fil6" points="965.81,1094.99 981.6,1094.99 981.6,1079.19 965.81,1079.19 "/>
   <polygon class="fil6" points="997.4,1094.99 1013.19,1094.99 1013.19,1079.19 997.4,1079.19 "/>
   <polygon class="fil6" points="1013.19,1094.99 1028.98,1094.99 1028.98,1079.19 1013.19,1079.19 "/>
   <polygon class="fil6" points="1060.57,1094.99 1076.36,1094.99 1076.36,1079.19 1060.57,1079.19 "/>
   <polygon class="fil6" points="1155.32,1094.99 1171.12,1094.99 1171.12,1079.19 1155.32,1079.19 "/>
   <polygon class="fil6" points="792.09,1110.78 807.89,1110.78 807.89,1094.99 792.09,1094.99 "/>
   <polygon class="fil6" points="807.89,1110.78 823.68,1110.78 823.68,1094.99 807.89,1094.99 "/>
   <polygon class="fil6" points="855.27,1110.78 871.06,1110.78 871.06,1094.99 855.27,1094.99 "/>
   <polygon class="fil6" points="886.85,1110.78 902.64,1110.78 902.64,1094.99 886.85,1094.99 "/>
   <polygon class="fil6" points="902.64,1110.78 918.44,1110.78 918.44,1094.99 902.64,1094.99 "/>
   <polygon class="fil6" points="934.23,1110.78 950.02,1110.78 950.02,1094.99 934.23,1094.99 "/>
   <polygon class="fil6" points="997.4,1110.78 1013.19,1110.78 1013.19,1094.99 997.4,1094.99 "/>
   <polygon class="fil6" points="1013.19,1110.78 1028.98,1110.78 1028.98,1094.99 1013.19,1094.99 "/>
   <polygon class="fil6" points="1044.77,1110.78 1060.57,1110.78 1060.57,1094.99 1044.77,1094.99 "/>
   <polygon class="fil6" points="1076.36,1110.78 1092.15,1110.78 1092.15,1094.99 1076.36,1094.99 "/>
   <polygon class="fil6" points="1092.15,1110.78 1107.95,1110.78 1107.95,1094.99 1092.15,1094.99 "/>
   <polygon class="fil6" points="1107.95,1110.78 1123.74,1110.78 1123.74,1094.99 1107.95,1094.99 "/>
   <polygon class="fil6" points="1123.74,1110.78 1139.53,1110.78 1139.53,1094.99 1123.74,1094.99 "/>
   <polygon class="fil6" points="1139.53,1110.78 1155.32,1110.78 1155.32,1094.99 1139.53,1094.99 "/>
   <polygon class="fil6" points="776.3,1126.57 792.09,1126.57 792.09,1110.78 776.3,1110.78 "/>
   <polygon class="fil6" points="792.09,1126.57 807.89,1126.57 807.89,1110.78 792.09,1110.78 "/>
   <polygon class="fil6" points="823.68,1126.57 839.47,1126.57 839.47,1110.78 823.68,1110.78 "/>
   <polygon class="fil6" points="855.27,1126.57 871.06,1126.57 871.06,1110.78 855.27,1110.78 "/>
   <polygon class="fil6" points="871.06,1126.57 886.85,1126.57 886.85,1110.78 871.06,1110.78 "/>
   <polygon class="fil6" points="902.64,1126.57 918.44,1126.57 918.44,1110.78 902.64,1110.78 "/>
   <polygon class="fil6" points="918.44,1126.57 934.23,1126.57 934.23,1110.78 918.44,1110.78 "/>
   <polygon class="fil6" points="965.81,1126.57 981.6,1126.57 981.6,1110.78 965.81,1110.78 "/>
   <polygon class="fil6" points="981.6,1126.57 997.4,1126.57 997.4,1110.78 981.6,1110.78 "/>
   <polygon class="fil6" points="997.4,1126.57 1013.19,1126.57 1013.19,1110.78 997.4,1110.78 "/>
   <polygon class="fil6" points="1013.19,1126.57 1028.98,1126.57 1028.98,1110.78 1013.19,1110.78 "/>
   <polygon class="fil6" points="1028.98,1126.57 1044.77,1126.57 1044.77,1110.78 1028.98,1110.78 "/>
   <polygon class="fil6" points="1060.57,1126.57 1076.36,1126.57 1076.36,1110.78 1060.57,1110.78 "/>
   <polygon class="fil6" points="1076.36,1126.57 1092.15,1126.57 1092.15,1110.78 1076.36,1110.78 "/>
   <polygon class="fil6" points="1107.95,1126.57 1123.74,1126.57 1123.74,1110.78 1107.95,1110.78 "/>
   <polygon class="fil6" points="1155.32,1126.57 1171.12,1126.57 1171.12,1110.78 1155.32,1110.78 "/>
   <polygon class="fil6" points="792.09,1142.36 807.89,1142.36 807.89,1126.57 792.09,1126.57 "/>
   <polygon class="fil6" points="823.68,1142.36 839.47,1142.36 839.47,1126.57 823.68,1126.57 "/>
   <polygon class="fil6" points="839.47,1142.36 855.27,1142.36 855.27,1126.57 839.47,1126.57 "/>
   <polygon class="fil6" points="902.64,1142.36 918.44,1142.36 918.44,1126.57 902.64,1126.57 "/>
   <polygon class="fil6" points="997.4,1142.36 1013.19,1142.36 1013.19,1126.57 997.4,1126.57 "/>
   <polygon class="fil6" points="1076.36,1142.36 1092.15,1142.36 1092.15,1126.57 1076.36,1126.57 "/>
   <polygon class="fil6" points="1107.95,1142.36 1123.74,1142.36 1123.74,1126.57 1107.95,1126.57 "/>
   <polygon class="fil6" points="1123.74,1142.36 1139.53,1142.36 1139.53,1126.57 1123.74,1126.57 "/>
   <polygon class="fil6" points="1139.53,1142.36 1155.32,1142.36 1155.32,1126.57 1139.53,1126.57 "/>
   <polygon class="fil6" points="1155.32,1142.36 1171.12,1142.36 1171.12,1126.57 1155.32,1126.57 "/>
   <polygon class="fil6" points="807.89,1158.16 823.68,1158.16 823.68,1142.37 807.89,1142.37 "/>
   <polygon class="fil6" points="823.68,1158.16 839.47,1158.16 839.47,1142.37 823.68,1142.37 "/>
   <polygon class="fil6" points="855.27,1158.16 871.06,1158.16 871.06,1142.37 855.27,1142.37 "/>
   <polygon class="fil6" points="871.06,1158.16 886.85,1158.16 886.85,1142.37 871.06,1142.37 "/>
   <polygon class="fil6" points="886.85,1158.16 902.64,1158.16 902.64,1142.37 886.85,1142.37 "/>
   <polygon class="fil6" points="918.44,1158.16 934.23,1158.16 934.23,1142.37 918.44,1142.37 "/>
   <polygon class="fil6" points="934.23,1158.16 950.02,1158.16 950.02,1142.37 934.23,1142.37 "/>
   <polygon class="fil6" points="1013.19,1158.16 1028.98,1158.16 1028.98,1142.37 1013.19,1142.37 "/>
   <polygon class="fil6" points="1028.98,1158.16 1044.77,1158.16 1044.77,1142.37 1028.98,1142.37 "/>
   <polygon class="fil6" points="1044.77,1158.16 1060.57,1158.16 1060.57,1142.37 1044.77,1142.37 "/>
   <polygon class="fil6" points="1060.57,1158.16 1076.36,1158.16 1076.36,1142.37 1060.57,1142.37 "/>
   <polygon class="fil6" points="1155.32,1158.16 1171.12,1158.16 1171.12,1142.37 1155.32,1142.37 "/>
   <polygon class="fil6" points="776.3,1173.95 792.09,1173.95 792.09,1158.16 776.3,1158.16 "/>
   <polygon class="fil6" points="823.68,1173.95 839.47,1173.95 839.47,1158.16 823.68,1158.16 "/>
   <polygon class="fil6" points="886.85,1173.95 902.64,1173.95 902.64,1158.16 886.85,1158.16 "/>
   <polygon class="fil6" points="902.64,1173.95 918.44,1173.95 918.44,1158.16 902.64,1158.16 "/>
   <polygon class="fil6" points="934.23,1173.95 950.02,1173.95 950.02,1158.16 934.23,1158.16 "/>
   <polygon class="fil6" points="965.81,1173.95 981.6,1173.95 981.6,1158.16 965.81,1158.16 "/>
   <polygon class="fil6" points="997.4,1173.95 1013.19,1173.95 1013.19,1158.16 997.4,1158.16 "/>
   <polygon class="fil6" points="1013.19,1173.95 1028.98,1173.95 1028.98,1158.16 1013.19,1158.16 "/>
   <polygon class="fil6" points="1028.98,1173.95 1044.77,1173.95 1044.77,1158.16 1028.98,1158.16 "/>
   <polygon class="fil6" points="1092.15,1173.95 1107.95,1173.95 1107.95,1158.16 1092.15,1158.16 "/>
   <polygon class="fil6" points="1139.53,1173.95 1155.32,1173.95 1155.32,1158.16 1139.53,1158.16 "/>
   <polygon class="fil6" points="776.3,1189.74 792.09,1189.74 792.09,1173.95 776.3,1173.95 "/>
   <polygon class="fil6" points="792.09,1189.74 807.89,1189.74 807.89,1173.95 792.09,1173.95 "/>
   <polygon class="fil6" points="823.68,1189.74 839.47,1189.74 839.47,1173.95 823.68,1173.95 "/>
   <polygon class="fil6" points="839.47,1189.74 855.27,1189.74 855.27,1173.95 839.47,1173.95 "/>
   <polygon class="fil6" points="855.27,1189.74 871.06,1189.74 871.06,1173.95 855.27,1173.95 "/>
   <polygon class="fil6" points="871.06,1189.74 886.85,1189.74 886.85,1173.95 871.06,1173.95 "/>
   <polygon class="fil6" points="934.23,1189.74 950.02,1189.74 950.02,1173.95 934.23,1173.95 "/>
   <polygon class="fil6" points="997.4,1189.74 1013.19,1189.74 1013.19,1173.95 997.4,1173.95 "/>
   <polygon class="fil6" points="1013.19,1189.74 1028.98,1189.74 1028.98,1173.95 1013.19,1173.95 "/>
   <polygon class="fil6" points="1044.77,1189.74 1060.57,1189.74 1060.57,1173.95 1044.77,1173.95 "/>
   <polygon class="fil6" points="1092.15,1189.74 1107.95,1189.74 1107.95,1173.95 1092.15,1173.95 "/>
   <polygon class="fil6" points="1107.95,1189.74 1123.74,1189.74 1123.74,1173.95 1107.95,1173.95 "/>
   <polygon class="fil6" points="1123.74,1189.74 1139.53,1189.74 1139.53,1173.95 1123.74,1173.95 "/>
   <polygon class="fil6" points="1139.53,1189.74 1155.32,1189.74 1155.32,1173.95 1139.53,1173.95 "/>
   <polygon class="fil6" points="1155.32,1189.74 1171.12,1189.74 1171.12,1173.95 1155.32,1173.95 "/>
   <polygon class="fil6" points="776.3,1205.54 792.09,1205.54 792.09,1189.74 776.3,1189.74 "/>
   <polygon class="fil6" points="807.89,1205.54 823.68,1205.54 823.68,1189.74 807.89,1189.74 "/>
   <polygon class="fil6" points="823.68,1205.54 839.47,1205.54 839.47,1189.74 823.68,1189.74 "/>
   <polygon class="fil6" points="839.47,1205.54 855.27,1205.54 855.27,1189.74 839.47,1189.74 "/>
   <polygon class="fil6" points="855.27,1205.54 871.06,1205.54 871.06,1189.74 855.27,1189.74 "/>
   <polygon class="fil6" points="902.64,1205.54 918.44,1205.54 918.44,1189.74 902.64,1189.74 "/>
   <polygon class="fil6" points="918.44,1205.54 934.23,1205.54 934.23,1189.74 918.44,1189.74 "/>
   <polygon class="fil6" points="934.23,1205.54 950.02,1205.54 950.02,1189.74 934.23,1189.74 "/>
   <polygon class="fil6" points="965.81,1205.54 981.6,1205.54 981.6,1189.74 965.81,1189.74 "/>
   <polygon class="fil6" points="1076.36,1205.54 1092.15,1205.54 1092.15,1189.74 1076.36,1189.74 "/>
   <polygon class="fil6" points="1092.15,1205.54 1107.95,1205.54 1107.95,1189.74 1092.15,1189.74 "/>
   <polygon class="fil6" points="1123.74,1205.54 1139.53,1205.54 1139.53,1189.74 1123.74,1189.74 "/>
   <polygon class="fil6" points="1155.32,1205.54 1171.12,1205.54 1171.12,1189.74 1155.32,1189.74 "/>
   <polygon class="fil6" points="776.3,1221.33 792.09,1221.33 792.09,1205.54 776.3,1205.54 "/>
   <polygon class="fil6" points="807.89,1221.33 823.68,1221.33 823.68,1205.54 807.89,1205.54 "/>
   <polygon class="fil6" points="855.27,1221.33 871.06,1221.33 871.06,1205.54 855.27,1205.54 "/>
   <polygon class="fil6" points="871.06,1221.33 886.85,1221.33 886.85,1205.54 871.06,1205.54 "/>
   <polygon class="fil6" points="886.85,1221.33 902.64,1221.33 902.64,1205.54 886.85,1205.54 "/>
   <polygon class="fil6" points="950.02,1221.33 965.81,1221.33 965.81,1205.54 950.02,1205.54 "/>
   <polygon class="fil6" points="965.81,1221.33 981.6,1221.33 981.6,1205.54 965.81,1205.54 "/>
   <polygon class="fil6" points="981.6,1221.33 997.4,1221.33 997.4,1205.54 981.6,1205.54 "/>
   <polygon class="fil6" points="1013.19,1221.33 1028.98,1221.33 1028.98,1205.54 1013.19,1205.54 "/>
   <polygon class="fil6" points="1028.98,1221.33 1044.77,1221.33 1044.77,1205.54 1028.98,1205.54 "/>
   <polygon class="fil6" points="1044.77,1221.33 1060.57,1221.33 1060.57,1205.54 1044.77,1205.54 "/>
   <polygon class="fil6" points="1060.57,1221.33 1076.36,1221.33 1076.36,1205.54 1060.57,1205.54 "/>
   <polygon class="fil6" points="1076.36,1221.33 1092.15,1221.33 1092.15,1205.54 1076.36,1205.54 "/>
   <polygon class="fil6" points="1092.15,1221.33 1107.95,1221.33 1107.95,1205.54 1092.15,1205.54 "/>
   <polygon class="fil6" points="1123.74,1221.33 1139.53,1221.33 1139.53,1205.54 1123.74,1205.54 "/>
   <polygon class="fil6" points="1139.53,1221.33 1155.32,1221.33 1155.32,1205.54 1139.53,1205.54 "/>
   <polygon class="fil6" points="902.64,1237.12 918.44,1237.12 918.44,1221.33 902.64,1221.33 "/>
   <polygon class="fil6" points="934.23,1237.12 950.02,1237.12 950.02,1221.33 934.23,1221.33 "/>
   <polygon class="fil6" points="950.02,1237.12 965.81,1237.12 965.81,1221.33 950.02,1221.33 "/>
   <polygon class="fil6" points="981.6,1237.12 997.4,1237.12 997.4,1221.33 981.6,1221.33 "/>
   <polygon class="fil6" points="1028.98,1237.12 1044.77,1237.12 1044.77,1221.33 1028.98,1221.33 "/>
   <polygon class="fil6" points="1092.15,1237.12 1107.95,1237.12 1107.95,1221.33 1092.15,1221.33 "/>
   <polygon class="fil6" points="1139.53,1237.12 1155.32,1237.12 1155.32,1221.33 1139.53,1221.33 "/>
   <polygon class="fil6" points="776.3,1252.91 792.09,1252.91 792.09,1237.12 776.3,1237.12 "/>
   <polygon class="fil6" points="792.09,1252.91 807.89,1252.91 807.89,1237.12 792.09,1237.12 "/>
   <polygon class="fil6" points="807.89,1252.91 823.68,1252.91 823.68,1237.12 807.89,1237.12 "/>
   <polygon class="fil6" points="823.68,1252.91 839.47,1252.91 839.47,1237.12 823.68,1237.12 "/>
   <polygon class="fil6" points="839.47,1252.91 855.27,1252.91 855.27,1237.12 839.47,1237.12 "/>
   <polygon class="fil6" points="855.27,1252.91 871.06,1252.91 871.06,1237.12 855.27,1237.12 "/>
   <polygon class="fil6" points="871.06,1252.91 886.85,1252.91 886.85,1237.12 871.06,1237.12 "/>
   <polygon class="fil6" points="918.44,1252.91 934.23,1252.91 934.23,1237.12 918.44,1237.12 "/>
   <polygon class="fil6" points="934.23,1252.91 950.02,1252.91 950.02,1237.12 934.23,1237.12 "/>
   <polygon class="fil6" points="965.81,1252.91 981.6,1252.91 981.6,1237.12 965.81,1237.12 "/>
   <polygon class="fil6" points="981.6,1252.91 997.4,1252.91 997.4,1237.12 981.6,1237.12 "/>
   <polygon class="fil6" points="1028.98,1252.91 1044.77,1252.91 1044.77,1237.12 1028.98,1237.12 "/>
   <polygon class="fil6" points="1060.57,1252.91 1076.36,1252.91 1076.36,1237.12 1060.57,1237.12 "/>
   <polygon class="fil6" points="1092.15,1252.91 1107.95,1252.91 1107.95,1237.12 1092.15,1237.12 "/>
   <polygon class="fil6" points="1107.95,1252.91 1123.74,1252.91 1123.74,1237.12 1107.95,1237.12 "/>
   <polygon class="fil6" points="1155.32,1252.91 1171.12,1252.91 1171.12,1237.12 1155.32,1237.12 "/>
   <polygon class="fil6" points="776.3,1268.71 792.09,1268.71 792.09,1252.91 776.3,1252.91 "/>
   <polygon class="fil6" points="871.06,1268.71 886.85,1268.71 886.85,1252.91 871.06,1252.91 "/>
   <polygon class="fil6" points="950.02,1268.71 965.81,1268.71 965.81,1252.91 950.02,1252.91 "/>
   <polygon class="fil6" points="981.6,1268.71 997.4,1268.71 997.4,1252.91 981.6,1252.91 "/>
   <polygon class="fil6" points="1013.19,1268.71 1028.98,1268.71 1028.98,1252.91 1013.19,1252.91 "/>
   <polygon class="fil6" points="1028.98,1268.71 1044.77,1268.71 1044.77,1252.91 1028.98,1252.91 "/>
   <polygon class="fil6" points="1092.15,1268.71 1107.95,1268.71 1107.95,1252.91 1092.15,1252.91 "/>
   <polygon class="fil6" points="776.3,1284.5 792.09,1284.5 792.09,1268.71 776.3,1268.71 "/>
   <polygon class="fil6" points="807.89,1284.5 823.68,1284.5 823.68,1268.71 807.89,1268.71 "/>
   <polygon class="fil6" points="823.68,1284.5 839.47,1284.5 839.47,1268.71 823.68,1268.71 "/>
   <polygon class="fil6" points="839.47,1284.5 855.27,1284.5 855.27,1268.71 839.47,1268.71 "/>
   <polygon class="fil6" points="871.06,1284.5 886.85,1284.5 886.85,1268.71 871.06,1268.71 "/>
   <polygon class="fil6" points="902.64,1284.5 918.44,1284.5 918.44,1268.71 902.64,1268.71 "/>
   <polygon class="fil6" points="918.44,1284.5 934.23,1284.5 934.23,1268.71 918.44,1268.71 "/>
   <polygon class="fil6" points="934.23,1284.5 950.02,1284.5 950.02,1268.71 934.23,1268.71 "/>
   <polygon class="fil6" points="950.02,1284.5 965.81,1284.5 965.81,1268.71 950.02,1268.71 "/>
   <polygon class="fil6" points="981.6,1284.5 997.4,1284.5 997.4,1268.71 981.6,1268.71 "/>
   <polygon class="fil6" points="1013.19,1284.5 1028.98,1284.5 1028.98,1268.71 1013.19,1268.71 "/>
   <polygon class="fil6" points="1028.98,1284.5 1044.77,1284.5 1044.77,1268.71 1028.98,1268.71 "/>
   <polygon class="fil6" points="1044.77,1284.5 1060.57,1284.5 1060.57,1268.71 1044.77,1268.71 "/>
   <polygon class="fil6" points="1060.57,1284.5 1076.36,1284.5 1076.36,1268.71 1060.57,1268.71 "/>
   <polygon class="fil6" points="1076.36,1284.5 1092.15,1284.5 1092.15,1268.71 1076.36,1268.71 "/>
   <polygon class="fil6" points="1092.15,1284.5 1107.95,1284.5 1107.95,1268.71 1092.15,1268.71 "/>
   <polygon class="fil6" points="1107.95,1284.5 1123.74,1284.5 1123.74,1268.71 1107.95,1268.71 "/>
   <polygon class="fil6" points="1139.53,1284.5 1155.32,1284.5 1155.32,1268.71 1139.53,1268.71 "/>
   <polygon class="fil6" points="1155.32,1284.5 1171.12,1284.5 1171.12,1268.71 1155.32,1268.71 "/>
   <polygon class="fil6" points="776.3,1300.29 792.09,1300.29 792.09,1284.5 776.3,1284.5 "/>
   <polygon class="fil6" points="807.89,1300.29 823.68,1300.29 823.68,1284.5 807.89,1284.5 "/>
   <polygon class="fil6" points="823.68,1300.29 839.47,1300.29 839.47,1284.5 823.68,1284.5 "/>
   <polygon class="fil6" points="839.47,1300.29 855.27,1300.29 855.27,1284.5 839.47,1284.5 "/>
   <polygon class="fil6" points="871.06,1300.29 886.85,1300.29 886.85,1284.5 871.06,1284.5 "/>
   <polygon class="fil6" points="902.64,1300.29 918.44,1300.29 918.44,1284.5 902.64,1284.5 "/>
   <polygon class="fil6" points="965.81,1300.29 981.6,1300.29 981.6,1284.5 965.81,1284.5 "/>
   <polygon class="fil6" points="981.6,1300.29 997.4,1300.29 997.4,1284.5 981.6,1284.5 "/>
   <polygon class="fil6" points="997.4,1300.29 1013.19,1300.29 1013.19,1284.5 997.4,1284.5 "/>
   <polygon class="fil6" points="1044.77,1300.29 1060.57,1300.29 1060.57,1284.5 1044.77,1284.5 "/>
   <polygon class="fil6" points="1060.57,1300.29 1076.36,1300.29 1076.36,1284.5 1060.57,1284.5 "/>
   <polygon class="fil6" points="1076.36,1300.29 1092.15,1300.29 1092.15,1284.5 1076.36,1284.5 "/>
   <polygon class="fil6" points="1107.95,1300.29 1123.74,1300.29 1123.74,1284.5 1107.95,1284.5 "/>
   <polygon class="fil6" points="1139.53,1300.29 1155.32,1300.29 1155.32,1284.5 1139.53,1284.5 "/>
   <polygon class="fil6" points="1155.32,1300.29 1171.12,1300.29 1171.12,1284.5 1155.32,1284.5 "/>
   <polygon class="fil6" points="776.3,1316.08 792.09,1316.08 792.09,1300.29 776.3,1300.29 "/>
   <polygon class="fil6" points="807.89,1316.08 823.68,1316.08 823.68,1300.29 807.89,1300.29 "/>
   <polygon class="fil6" points="823.68,1316.08 839.47,1316.08 839.47,1300.29 823.68,1300.29 "/>
   <polygon class="fil6" points="839.47,1316.08 855.27,1316.08 855.27,1300.29 839.47,1300.29 "/>
   <polygon class="fil6" points="871.06,1316.08 886.85,1316.08 886.85,1300.29 871.06,1300.29 "/>
   <polygon class="fil6" points="918.44,1316.08 934.23,1316.08 934.23,1300.29 918.44,1300.29 "/>
   <polygon class="fil6" points="950.02,1316.08 965.81,1316.08 965.81,1300.29 950.02,1300.29 "/>
   <polygon class="fil6" points="981.6,1316.08 997.4,1316.08 997.4,1300.29 981.6,1300.29 "/>
   <polygon class="fil6" points="1013.19,1316.08 1028.98,1316.08 1028.98,1300.29 1013.19,1300.29 "/>
   <polygon class="fil6" points="1044.77,1316.08 1060.57,1316.08 1060.57,1300.29 1044.77,1300.29 "/>
   <polygon class="fil6" points="1076.36,1316.08 1092.15,1316.08 1092.15,1300.29 1076.36,1300.29 "/>
   <polygon class="fil6" points="1092.15,1316.08 1107.95,1316.08 1107.95,1300.29 1092.15,1300.29 "/>
   <polygon class="fil6" points="1123.74,1316.08 1139.53,1316.08 1139.53,1300.29 1123.74,1300.29 "/>
   <polygon class="fil6" points="1139.53,1316.08 1155.32,1316.08 1155.32,1300.29 1139.53,1300.29 "/>
   <polygon class="fil6" points="1155.32,1316.08 1171.12,1316.08 1171.12,1300.29 1155.32,1300.29 "/>
   <polygon class="fil6" points="776.3,1331.87 792.09,1331.87 792.09,1316.08 776.3,1316.08 "/>
   <polygon class="fil6" points="871.06,1331.87 886.85,1331.87 886.85,1316.08 871.06,1316.08 "/>
   <polygon class="fil6" points="902.64,1331.87 918.44,1331.87 918.44,1316.08 902.64,1316.08 "/>
   <polygon class="fil6" points="918.44,1331.87 934.23,1331.87 934.23,1316.08 918.44,1316.08 "/>
   <polygon class="fil6" points="934.23,1331.87 950.02,1331.87 950.02,1316.08 934.23,1316.08 "/>
   <polygon class="fil6" points="950.02,1331.87 965.81,1331.87 965.81,1316.08 950.02,1316.08 "/>
   <polygon class="fil6" points="965.81,1331.87 981.6,1331.87 981.6,1316.08 965.81,1316.08 "/>
   <polygon class="fil6" points="981.6,1331.87 997.4,1331.87 997.4,1316.08 981.6,1316.08 "/>
   <polygon class="fil6" points="1013.19,1331.87 1028.98,1331.87 1028.98,1316.08 1013.19,1316.08 "/>
   <polygon class="fil6" points="1060.57,1331.87 1076.36,1331.87 1076.36,1316.08 1060.57,1316.08 "/>
   <polygon class="fil6" points="1076.36,1331.87 1092.15,1331.87 1092.15,1316.08 1076.36,1316.08 "/>
   <polygon class="fil6" points="1092.15,1331.87 1107.95,1331.87 1107.95,1316.08 1092.15,1316.08 "/>
   <polygon class="fil6" points="1123.74,1331.87 1139.53,1331.87 1139.53,1316.08 1123.74,1316.08 "/>
   <polygon class="fil6" points="1139.53,1331.87 1155.32,1331.87 1155.32,1316.08 1139.53,1316.08 "/>
   <polygon class="fil6" points="1155.32,1331.87 1171.12,1331.87 1171.12,1316.08 1155.32,1316.08 "/>
   <polygon class="fil6" points="776.3,1347.67 792.09,1347.67 792.09,1331.87 776.3,1331.87 "/>
   <polygon class="fil6" points="792.09,1347.67 807.89,1347.67 807.89,1331.87 792.09,1331.87 "/>
   <polygon class="fil6" points="807.89,1347.67 823.68,1347.67 823.68,1331.87 807.89,1331.87 "/>
   <polygon class="fil6" points="823.68,1347.67 839.47,1347.67 839.47,1331.87 823.68,1331.87 "/>
   <polygon class="fil6" points="839.47,1347.67 855.27,1347.67 855.27,1331.87 839.47,1331.87 "/>
   <polygon class="fil6" points="855.27,1347.67 871.06,1347.67 871.06,1331.87 855.27,1331.87 "/>
   <polygon class="fil6" points="871.06,1347.67 886.85,1347.67 886.85,1331.87 871.06,1331.87 "/>
   <polygon class="fil6" points="902.64,1347.67 918.44,1347.67 918.44,1331.87 902.64,1331.87 "/>
   <polygon class="fil6" points="934.23,1347.67 950.02,1347.67 950.02,1331.87 934.23,1331.87 "/>
   <polygon class="fil6" points="950.02,1347.67 965.81,1347.67 965.81,1331.87 950.02,1331.87 "/>
   <polygon class="fil6" points="965.81,1347.67 981.6,1347.67 981.6,1331.87 965.81,1331.87 "/>
   <polygon class="fil6" points="981.6,1347.67 997.4,1347.67 997.4,1331.87 981.6,1331.87 "/>
   <polygon class="fil6" points="1028.98,1347.67 1044.77,1347.67 1044.77,1331.87 1028.98,1331.87 "/>
   <polygon class="fil6" points="1044.77,1347.67 1060.57,1347.67 1060.57,1331.87 1044.77,1331.87 "/>
   <polygon class="fil6" points="1107.95,1347.67 1123.74,1347.67 1123.74,1331.87 1107.95,1331.87 "/>
   <polygon class="fil6" points="1155.32,1347.67 1171.12,1347.67 1171.12,1331.87 1155.32,1331.87 "/>
   <path class="fil6" d="M1115.35 1543.41l-283.28 0c-8.99,0 -16.29,-7.29 -16.29,-16.28l0 -40.86c0,-8.99 7.3,-16.28 16.29,-16.28l283.28 0c8.99,0 16.28,7.29 16.28,16.28l0 40.86c0,8.99 -7.29,16.28 -16.28,16.28z"/>
   <path class="fil14" d="M931.04 1523.64c8.2,0 12.9,-4.35 12.9,-10.5 0,-6.25 -4.8,-8.55 -11.95,-10.15 -5.45,-1.25 -8,-2.25 -8,-5.05 0,-2.4 2.35,-4.5 5.8,-4.5 3.4,0 6.85,1.45 9.85,4.05l3.4 -4.6c-3.45,-2.95 -7.55,-4.8 -13,-4.8 -7.25,0 -12.35,4.4 -12.35,10.4 0,6.45 4.95,8.5 12.05,10.15 5.5,1.3 7.95,2.25 7.95,5.1 0,2.45 -2.2,4.55 -6.45,4.55 -4.5,0 -8.15,-1.8 -11.3,-4.65l-3.6 4.45c3.8,3.54 8.8,5.55 14.7,5.55zm30.85 0.04c4.1,0 7.55,-1.69 10.04,-4.34l-4.09 -3.55c-1.45,1.65 -3.65,2.7 -5.9,2.7 -4.25,0 -7.8,-3.8 -7.8,-8.35 0,-4.5 3.55,-8.3 7.8,-8.3 2.2,0 4.35,1.05 5.75,2.6l4.09 -3.6c-2.44,-2.55 -5.89,-4.2 -9.79,-4.2 -7.55,0 -13.9,6.15 -13.9,13.5 0,7.35 6.35,13.54 13.8,13.54zm26.09 -27.04c-3.25,0 -6.65,0.9 -10.3,2.7l2.1 4.25c2.2,-1.1 4.55,-1.95 7,-1.95 4.7,0 6.35,2.9 6.35,5.9l0 0.7c-2.35,-0.9 -4.9,-1.4 -7.25,-1.4 -5.8,0 -10.55,3.5 -10.55,8.6 0,5 4.15,8.24 9.65,8.24 3,0 6.25,-1.3 8.15,-3.69l0 3.09 5.95 0 0 -15.54c0,-6.55 -4.25,-10.9 -11.1,-10.9zm-1.65 22.6c-2.9,0 -5.05,-1.55 -5.05,-4 0,-2.45 2.45,-4.15 5.5,-4.15 2.3,0 4.45,0.35 6.35,1l0 2.9c-0.7,2.75 -3.85,4.25 -6.8,4.25zm33.45 -22.6c-3.4,0 -6.4,1.65 -8,4.05l0 -3.45 -6.1 0 0 25.84 6.1 0 0 -16.34c0.4,-2.75 3.05,-4.9 6.25,-4.9 3.2,0 5.45,2.5 5.45,6l0 15.24 5.9 0 0 -16.44c0,-5.85 -3.95,-10 -9.6,-10z"/>
   <g style="clip-path:url(#id0)">
    <image x="773.25" y="718.09" width="400.44" height="68.41" xlink:href="vetor001_Images\vetor001_ImgID1.png"/>
   </g>
   <g style="clip-path:url(#id1)">
    <image x="773.25" y="803.91" width="400.44" height="36.33" xlink:href="vetor001_Images\vetor001_ImgID2.png"/>
   </g>
   <g style="clip-path:url(#id2)">
    <image x="773.25" y="861.82" width="400.44" height="38.41" xlink:href="vetor001_Images\vetor001_ImgID3.png"/>
   </g>
   <g style="clip-path:url(#id3)">
    <image x="773.25" y="1600.04" width="400.44" height="56.32" xlink:href="vetor001_Images\vetor001_ImgID4.png"/>
   </g>
   <path class="fil18" d="M470.23 850.5c0,0 42.08,-16.5 57.13,37.86 15.04,54.36 29.6,65.52 43.68,74.25 14.07,8.74 15.31,79.92 -103.75,79.77 -119.67,-0.15 -126.3,-52.59 -96.2,-86.56 30.08,-33.97 40.28,-69.4 41.73,-82.99 1.46,-13.59 22.13,-36.89 57.41,-22.33z"/>
   <path class="fil19" d="M541.88 1037.78c-0.36,-0.4 -0.58,-0.64 -0.65,-0.7 -4.19,-3.97 -9.68,-6.07 -15.46,-5.9 -5.77,0.16 -11.14,2.56 -15.11,6.75 -7.68,8.13 -7.85,21.01 -0.37,29.31 0.37,0.42 0.77,0.82 1.18,1.22l80.93 83.56 0.07 0.06c7.51,6.87 19.81,6.32 26.8,-1.07 6.66,-7.05 7.32,-18.34 0.82,-25.55l-1.25 -0.67c-2.65,-3.02 -70.56,-79.9 -76.96,-87.01z"/>
   <path class="fil19" d="M618.8 1151.07l-0.84 0.78 -0.18 0.17c-7.68,6.68 -19.48,5.98 -26.28,-1.58 -6.85,-7.62 -6.18,-19.65 1.21,-26.7 1.76,-2.18 22.89,-21.58 75.62,-65.01l15.45 18.95c-15.75,19.74 -43.52,57.15 -64.98,73.39z"/>
   <path class="fil16" d="M476.93 1479.56l0.02 -0.94c-1.91,-57.16 -0.54,-190.52 -0.54,-190.71 -0.56,-20.79 15.83,-38.15 36.61,-38.71 20.79,-0.57 37.97,15.54 38.54,36.32l-0.06 0.58c-5.99,61.04 -12.59,107.76 -27.15,198.11l-0.11 0.84c-1.61,11.3 -11.16,20.26 -22.95,20.58 -13.16,0.36 -24.12,-9.95 -24.48,-23.11 -0.02,-1.03 0.02,-1.97 0.12,-2.96z"/>
   <path class="fil19" d="M511.22 1675.04l-26.99 0.28c-0.86,-8.72 -2.36,-31.77 -3.97,-43.68l32.43 0c-0.64,11.91 -1.15,34.36 -1.47,43.4z"/>
   <path class="fil16" d="M476.74 1479.91c0,-0.02 0.24,-0.86 0.3,-1.27 1.57,-11.34 11.13,-20.21 22.95,-20.53 13.16,-0.35 24.12,10.02 24.47,23.18 0.04,1.37 -0.48,5.96 -0.65,6.81 -3.33,17.24 -8.41,90.45 -11.12,143.54l-32.43 0c-2.04,-16.26 -4.25,-30.48 -5.47,-37.2 -13.72,-75.52 1.58,-112.11 1.95,-114.53z"/>
   <path class="fil20" d="M512.9 1621.37c0,0 2.93,0.6 2.14,5.03 -0.79,4.44 0.87,7.81 -0.97,9.53 -1.83,1.72 -16.94,6.03 -34.67,-0.03 0,0 -2.63,-1.37 -1.23,-7.73 0.58,-2.62 -2.44,-5.55 0.48,-8.33 0,0 16.07,6.85 34.25,1.53z"/>
   <path class="fil16" d="M386.47 1476.06l0.07 -0.94c0.98,-57.18 9.1,-190.3 9.1,-190.49 0.49,-20.79 17.73,-37.3 38.52,-36.81 20.79,0.48 37.22,17.84 36.73,38.62l-0.03 0.7 0 0c-9.03,60.66 -18.21,106.74 -37.31,196.24l-0.13 0.69c-2.17,11.2 -12.15,19.61 -23.95,19.33 -13.16,-0.31 -23.57,-11.2 -23.27,-24.35 0.03,-1.03 0.13,-2.01 0.27,-2.99z"/>
   <path class="fil16" d="M386.27 1476.4c0,-0.02 0.28,-0.85 0.36,-1.26 2.14,-11.24 12.15,-19.61 23.96,-19.34 13.16,0.32 23.58,11.23 23.27,24.39 -0.03,1.37 -0.8,5.95 -1.01,6.79 -4.24,17.23 -12.97,92.76 -18.25,145.58l-32.43 -3.36c-1.22,-16.47 -2.75,-31.59 -3.65,-38.5 -9.89,-76.11 7.26,-111.9 7.75,-114.3z"/>
   <path class="fil19" d="M410.57 1674.34l-27.46 1.59c-0.4,-8.53 0.11,-35.73 -0.94,-46.73l32.43 3.36c-1.18,11.86 -3.29,33.14 -4.03,41.78z"/>
   <path class="fil20" d="M415.76 1621.56c0,0 2.88,0.76 1.83,5.14 -1.04,4.39 0.42,7.85 -1.51,9.46 -1.93,1.61 -17.27,5.04 -34.62,-2.05 0,0 -2.54,-1.52 -0.77,-7.78 0.73,-2.59 -2.12,-5.68 0.96,-8.28 0,0 15.65,7.77 34.11,3.51z"/>
   <path class="fil19" d="M517 1676.99c0,0 -3.62,-5.92 -18.43,-5.92 -14.8,0 -16.07,6.03 -16.07,6.03l0 7.62 34.38 0 0.12 -7.73z"/>
   <polygon class="fil21" points="474.92,1713.97 574.59,1713.97 574.59,1706.39 474.92,1706.39 "/>
   <path class="fil22" d="M573.8 1706.39c0,0 4.63,-17.7 -28.46,-14.95l-28.12 -19.73c0,0 -2.22,-1.87 -4.28,0.05 -2.07,1.92 -9.45,8.97 -18.47,7.79 -9.01,-1.19 -9.23,-6.93 -12.41,-6.49 -3.18,0.44 -8.42,14.91 -7.53,33.33l99.27 0z"/>
   <path class="fil23" d="M545.34 1691.22c33.09,-2.76 28.46,15.17 28.46,15.17l-31.25 0c0,-10.84 2.79,-15.17 2.79,-15.17z"/>
   <path class="fil24" d="M533.34 1693.62c0.39,0 0.78,-0.2 1.01,-0.56 2.15,-3.46 5.01,-5.13 5.04,-5.14 0.57,-0.32 0.76,-1.05 0.44,-1.61 -0.32,-0.57 -1.05,-0.77 -1.61,-0.45 -0.14,0.09 -3.42,1.99 -5.89,5.95 -0.34,0.56 -0.17,1.28 0.39,1.63l0.62 0.18z"/>
   <path class="fil24" d="M528.51 1690.2c0.4,0 0.79,-0.2 1.01,-0.56 2.16,-3.46 5.02,-5.12 5.05,-5.13 0.56,-0.33 0.76,-1.05 0.44,-1.62 -0.33,-0.57 -1.05,-0.76 -1.61,-0.44 -0.14,0.08 -3.42,1.98 -5.89,5.95 -0.34,0.55 -0.17,1.28 0.38,1.63l0.62 0.17z"/>
   <path class="fil24" d="M523.69 1686.79c0.4,0 0.78,-0.2 1.01,-0.56 2.15,-3.47 5.02,-5.12 5.04,-5.14 0.57,-0.33 0.77,-1.05 0.44,-1.61 -0.32,-0.57 -1.04,-0.77 -1.61,-0.45 -0.13,0.08 -3.41,1.98 -5.88,5.95 -0.34,0.55 -0.17,1.29 0.38,1.63l0.62 0.18z"/>
   <path class="fil24" d="M518.87 1683.37c0.4,0 0.78,-0.19 1,-0.55 2.16,-3.47 5.02,-5.13 5.05,-5.15 0.57,-0.32 0.77,-1.04 0.45,-1.61 -0.33,-0.57 -1.05,-0.76 -1.62,-0.44 -0.14,0.08 -3.41,1.98 -5.88,5.95 -0.35,0.56 -0.18,1.28 0.38,1.62l0.62 0.18z"/>
   <path class="fil19" d="M416.19 1676.99c0,0 -3.59,-5.92 -18.39,-5.92 -14.81,0 -16.04,6.03 -16.04,6.03l0 7.62 34.31 0 0.12 -7.73z"/>
   <polygon class="fil21" points="377.42,1713.97 440.25,1713.97 440.25,1706.39 377.42,1706.39 "/>
   <path class="fil22" d="M439.17 1706.39c0,0 2.79,-12.21 -9.59,-14.99l-15.12 -19.84c0,0 -5.62,-5.23 -14.24,0.08 -2,1.22 -6.56,9.03 -12.3,7.84 -5.73,-1.19 -3.93,-7.03 -5.95,-6.59 -2.02,0.45 -5.36,12.91 -4.8,33.5l62 0z"/>
   <path class="fil23" d="M429.58 1691.12c12.38,2.77 9.59,15.27 9.59,15.27l-32.65 0c0.81,-18.42 23.06,-15.27 23.06,-15.27z"/>
   <path class="fil24" d="M412.71 1690.09l0.49 -0.1c7.45,-3.32 12.39,-1.84 12.43,-1.83 0.63,0.2 1.3,-0.15 1.5,-0.77 0.2,-0.63 -0.14,-1.29 -0.77,-1.5 -0.22,-0.07 -5.78,-1.8 -14.13,1.93 -0.6,0.26 -0.87,0.96 -0.61,1.56 0.2,0.45 0.64,0.71 1.09,0.71z"/>
   <path class="fil24" d="M409.74 1685.93l0.48 -0.11c7.46,-3.32 12.39,-1.84 12.44,-1.82 0.63,0.19 1.3,-0.15 1.5,-0.78 0.19,-0.62 -0.15,-1.29 -0.77,-1.49 -0.23,-0.08 -5.79,-1.8 -14.14,1.92 -0.6,0.27 -0.87,0.97 -0.6,1.57 0.2,0.44 0.63,0.71 1.09,0.71z"/>
   <path class="fil24" d="M407.39 1682.54l0.52 -0.12c7.43,-3.56 12.33,-2.18 12.38,-2.17 0.62,0.19 1.29,-0.17 1.47,-0.8 0.19,-0.63 -0.17,-1.29 -0.8,-1.48 -0.24,-0.07 -5.84,-1.64 -14.08,2.3 -0.59,0.29 -0.85,1 -0.57,1.59 0.21,0.43 0.64,0.68 1.08,0.68z"/>
   <path class="fil24" d="M404.44 1678.49l0.53 -0.13c7.37,-3.68 12.3,-2.4 12.34,-2.38 0.63,0.17 1.29,-0.2 1.47,-0.83 0.17,-0.64 -0.2,-1.3 -0.84,-1.47 -0.23,-0.06 -5.85,-1.54 -14.03,2.56 -0.59,0.29 -0.83,1.01 -0.53,1.59 0.21,0.42 0.62,0.66 1.06,0.66z"/>
   <path class="fil16" d="M395.29 1284.01c0,-1.34 0.27,-3.99 0.41,-4.97 0.15,-1.22 0.35,-2.43 0.61,-3.61 7.83,-43 30.4,-80.33 30.4,-80.33l95.38 0.55c0,0 25.43,29.28 29.47,79.35 0.3,1.95 0,10.52 0,10.52 -0.62,19.19 -14.91,33.97 -33.33,35.92l-85.96 0.08c-20.33,-0.71 -36.76,-17.06 -36.98,-37.51z"/>
   <path class="fil25" d="M472.55 1320.01l-0.43 -0.1c-0.55,-0.23 -0.81,-0.87 -0.56,-1.42 0.04,-0.11 4.73,-11 10.41,-34.2 3.7,-15.08 2.58,-43.23 1.35,-61.14 0.74,-0.02 1.47,-0.05 2.19,-0.08 1.26,17.99 2.37,46.21 -1.43,61.74 -5.74,23.41 -10.49,34.44 -10.54,34.54 -0.18,0.41 -0.57,0.66 -0.99,0.66zm10.62 -99.02c-0.62,-8.38 -1.21,-14.04 -1.22,-14.21 -0.07,-0.59 0.36,-1.13 0.96,-1.19 0.04,-0.01 0.07,-0.01 0.12,-0.01 0.53,0 1.01,0.41 1.07,0.97 0.07,0.69 0.66,6.29 1.25,14.37 -0.72,0.03 -1.45,0.05 -2.18,0.07z"/>
   <path class="fil25" d="M482.3 1300.22c-0.53,0 -0.99,-0.39 -1.07,-0.92 -0.09,-0.59 0.32,-1.14 0.91,-1.23 9.47,-1.43 13.08,-13.5 13.13,-13.65 4.59,-14.14 3.02,-43.62 1.4,-62.27 0.74,-0.08 1.47,-0.18 2.18,-0.28 1.66,18.77 3.25,48.51 -1.51,63.19 -0.17,0.55 -4.02,13.52 -14.88,15.15l-0.16 0.01zm14.18 -80.22c-0.78,-8.5 -1.51,-14.28 -1.54,-14.46 -0.07,-0.59 0.35,-1.14 0.94,-1.22 0.05,0 0.1,-0.01 0.14,-0.01 0.54,0 1,0.41 1.08,0.95 0.09,0.72 0.8,6.35 1.56,14.46 -0.72,0.1 -1.44,0.19 -2.18,0.28z"/>
   <path class="fil25" d="M479.02 1223.21c-7.8,0 -16.4,-0.6 -25.68,-2.09 -0.12,-0.04 -0.25,-0.07 -0.38,-0.07l-0.02 0c-0.01,0 -0.03,0 -0.04,0 -9.35,-1.52 -19.41,-3.95 -30.08,-7.59 -0.57,-0.18 -0.87,-0.8 -0.68,-1.37 0.15,-0.45 0.57,-0.73 1.03,-0.73 0.12,0 0.23,0.02 0.34,0.05 21.26,7.23 39.99,9.64 55.54,9.64 1.4,0 2.77,-0.02 4.12,-0.06 0.73,-0.02 1.46,-0.04 2.18,-0.07 3.96,-0.17 7.67,-0.49 11.13,-0.92 0.74,-0.09 1.46,-0.18 2.18,-0.28 18.73,-2.6 29.42,-8.12 29.62,-8.23 0.16,-0.09 0.34,-0.13 0.51,-0.13 0.39,0 0.76,0.2 0.96,0.57 0.28,0.53 0.08,1.19 -0.45,1.47 -0.21,0.11 -11.2,5.81 -30.45,8.47 -0.71,0.1 -1.44,0.2 -2.18,0.28 -3.48,0.43 -7.2,0.75 -11.16,0.92 -0.72,0.03 -1.45,0.06 -2.19,0.08 -1.41,0.04 -2.84,0.06 -4.3,0.06z"/>
   <path class="fil25" d="M490.85 1217.46c-2.47,0 -4.47,-2.01 -4.47,-4.48 0,-2.46 2,-4.47 4.47,-4.47 2.47,0 4.47,2.01 4.47,4.47 0,2.47 -2,4.48 -4.47,4.48z"/>
   <path class="fil25" d="M415.37 1252.28c-0.41,0 -0.83,0 -1.25,-0.01 0,0 5.53,-23.03 12.57,-34.81 0,0 13.54,4.47 19.5,4.74 0,0 -0.23,30.08 -30.82,30.08z"/>
   <path class="fil25" d="M543.33 1238.99c-13.72,-4.34 -17.16,-21.67 -17.16,-21.67 3.8,-1.62 6.96,-3.45 6.96,-3.45 4.69,7.93 10.2,25.12 10.2,25.12z"/>
   <path class="fil25" d="M415.28 1259.97c-0.01,0 -0.02,0 -0.03,0 -1.23,0 -2.5,-0.03 -3.79,-0.11 -0.6,-0.04 -1.05,-0.55 -1.02,-1.15 0.03,-0.57 0.51,-1.02 1.08,-1.02 0.02,0 0.04,0 0.07,0 1.24,0.07 2.46,0.11 3.65,0.11 10.87,0 19.55,-3.03 25.82,-9.02 10.89,-10.4 10.82,-26.44 10.82,-26.6 -0.01,-0.58 0.44,-1.1 1.02,-1.13 0.01,0 0.03,0 0.04,0l0.02 0c0.13,0 0.26,0.03 0.38,0.07 0.4,0.16 0.69,0.57 0.7,1.03 0.01,0.7 0.1,17.13 -11.47,28.2 -6.69,6.39 -15.85,9.62 -27.29,9.62z"/>
   <path class="fil25" d="M544.64 1245.75l-0.27 -0.03c-21.05,-5.4 -24.2,-26.82 -24.23,-27.04 -0.08,-0.59 0.33,-1.14 0.92,-1.22 0.05,0 0.1,-0.01 0.15,-0.01 0.54,0 1,0.4 1.07,0.94 0.03,0.2 2.98,20.19 22.63,25.23 0.58,0.15 0.92,0.74 0.78,1.32 -0.13,0.49 -0.57,0.81 -1.05,0.81z"/>
   <path class="fil25" d="M467.21 1317.96l-0.92 -0.5c-0.09,-0.15 -9.7,-14.98 -23.71,-24.9 -0.48,-0.35 -0.6,-1.03 -0.25,-1.51 0.21,-0.3 0.54,-0.46 0.88,-0.46 0.22,0 0.43,0.07 0.63,0.2 14.36,10.17 24.18,25.35 24.28,25.5 0.32,0.51 0.18,1.17 -0.33,1.5l-0.58 0.17z"/>
   <path class="fil25" d="M460.81 1315.78l-0.68 -0.25c-0.18,-0.14 -18.47,-14.91 -41.76,-19.15 -0.59,-0.1 -0.98,-0.67 -0.87,-1.26 0.09,-0.52 0.55,-0.89 1.07,-0.89 0.06,0 0.12,0.01 0.19,0.02 23.83,4.33 42.55,19.45 42.74,19.61 0.46,0.38 0.53,1.06 0.15,1.52l-0.84 0.4z"/>
   <path class="fil25" d="M461.9 1320.01l-0.21 -0.03c-0.18,-0.03 -14.35,-2.78 -26.03,-2.78 -3.22,0 -6.25,0.21 -8.75,0.74 -0.07,0.01 -0.15,0.02 -0.22,0.02 -0.5,0 -0.95,-0.35 -1.06,-0.85 -0.12,-0.59 0.25,-1.17 0.83,-1.29 2.69,-0.58 5.91,-0.8 9.3,-0.8 11.76,0 25.6,2.69 26.34,2.84 0.6,0.11 0.97,0.68 0.86,1.27 -0.1,0.52 -0.56,0.88 -1.06,0.88z"/>
   <path class="fil25" d="M485.73 1317.96l-0.59 -0.17c-0.5,-0.33 -0.64,-0.99 -0.32,-1.5 0.09,-0.15 9.93,-15.33 24.28,-25.5 0.19,-0.13 0.41,-0.2 0.63,-0.2 0.34,0 0.67,0.16 0.88,0.46 0.35,0.48 0.23,1.16 -0.26,1.51 -14,9.92 -23.61,24.75 -23.71,24.9l-0.91 0.5z"/>
   <path class="fil25" d="M492.12 1315.78l-0.84 -0.4c-0.37,-0.46 -0.31,-1.14 0.16,-1.52 0.18,-0.16 18.91,-15.28 42.74,-19.61 0.07,-0.01 0.13,-0.02 0.2,-0.02 0.51,0 0.97,0.37 1.06,0.89 0.11,0.59 -0.28,1.16 -0.87,1.26 -23.27,4.23 -41.58,19.01 -41.76,19.16l-0.69 0.24z"/>
   <path class="fil25" d="M491.04 1320.01c-0.51,0 -0.96,-0.36 -1.06,-0.88 -0.12,-0.59 0.27,-1.16 0.85,-1.27 0.74,-0.15 14.58,-2.84 26.35,-2.84 3.39,0 6.61,0.22 9.3,0.8 0.58,0.12 0.96,0.7 0.83,1.29 -0.11,0.5 -0.56,0.85 -1.07,0.85 -0.07,0 -0.14,-0.01 -0.22,-0.02 -2.49,-0.53 -5.52,-0.74 -8.74,-0.74 -11.68,0 -25.85,2.75 -26.03,2.78l-0.21 0.03z"/>
   <path class="fil19" d="M483.45 1010.72l0.1 26.81 -32.81 0.12 -0.13 -34.87c13.64,8.91 27.23,8.66 32.84,7.94z"/>
   <path class="fil19" d="M450.61 1002.78l-0.11 -26.87 32.81 -0.13 0.14 34.94c-5.61,0.72 -19.2,0.97 -32.84,-7.94z"/>
   <path class="fil26" d="M478.04 1011.03c-0.12,0 -0.24,0 -0.37,0 0.13,0 0.25,0 0.37,0l0 0zm-26.52 -7.67c-0.18,-0.11 -0.36,-0.23 -0.54,-0.35 0.18,0.12 0.36,0.24 0.54,0.35zm-0.55 -0.35c-0.12,-0.08 -0.24,-0.15 -0.36,-0.23 0.12,0.08 0.24,0.15 0.36,0.23zm-0.36 -0.08c-0.08,-0.05 -0.16,-0.1 -0.23,-0.15l-0.11 -26.87 32.81 -0.13 -32.58 0.13 0.11 26.87 0 0.15z"/>
   <path class="fil27" d="M477.93 1011.03c-6.78,0 -17.03,-1.45 -27.32,-8.1l0 -0.15c0.12,0.08 0.24,0.15 0.36,0.23 0,0 0,0 0.01,0 0.18,0.12 0.36,0.24 0.54,0.35 9.82,6.13 19.53,7.6 26.15,7.67 0.13,0 0.25,0 0.37,0 -0.03,0 -0.07,0 -0.11,0z"/>
   <path class="fil27" d="M478.04 1011.03c-0.12,0 -0.24,0 -0.37,0 -6.62,-0.07 -16.33,-1.54 -26.15,-7.67 -0.18,-0.11 -0.36,-0.23 -0.54,-0.35 -0.01,0 -0.01,0 -0.01,0 -0.12,-0.08 -0.24,-0.15 -0.36,-0.23l0 0 -0.11 -26.87 32.58 -0.13 0.13 34.94c-1.31,0.16 -3.07,0.31 -5.17,0.31z"/>
   <path class="fil19" d="M471.74 1032.38c-11.81,0.27 -21.31,-6.82 -24.28,-10.38 6.36,-1.14 15.91,-3.37 21.45,-3.43 5.25,-0.05 13.04,1.71 18.45,2.66 -0.22,2.6 -3.02,10.86 -15.62,11.15z"/>
   <path class="fil22" d="M386.06 1045.61c0,-12.73 17.95,-15.3 17.95,-15.3 9.35,-1.77 24.5,-4.02 34.41,-6.41 0,0 4.68,-1.04 10.75,-2.13 2.98,3.55 10.59,9.49 22.4,9.22 12.6,-0.3 14.38,-7.2 14.61,-9.8 5.74,1.01 10.14,2.07 10.14,2.07 17.62,3.71 31.66,7.05 31.66,7.05 0,0 18.49,2.57 18.49,15.3 0,5.75 -11.96,14.14 -17.38,17.13l0 1.41c17.33,13.55 19.55,23.71 19.55,35.27 0,24.19 -20.43,30.11 -20.43,30.11l-6.05 66.12c-37.83,19.79 -95.41,-0.55 -95.41,-0.55 -6.27,-42.67 -16.08,-70.1 -20.61,-97.38 -1.89,-11.39 -2.64,-24.09 -2.84,-35.37 -5.84,-3.27 -17.24,-11.22 -17.24,-16.74z"/>
   <path class="fil22" d="M543.33 1226.47c0,0 3.56,10.19 5.04,19.3 0,0 -50.51,23.4 -146.03,0.01l6.32 -19.31 134.67 0z"/>
   <path class="fil14" d="M473.61 1039.92c-20.19,0.47 -32.24,-8.87 -36.34,-15.75 0.38,-0.09 0.78,-0.18 1.15,-0.27 0,0 4.68,-1.04 10.75,-2.13 2.98,3.55 10.6,9.49 22.41,9.22 12.59,-0.3 14.37,-7.2 14.6,-9.8 5.27,0.93 9.39,1.9 10.04,2.05 -1.25,5.83 -5.82,16.29 -22.61,16.68z"/>
   <path class="fil28" d="M463.71 1129.16c-34.82,0 -39.85,-28.69 -39.85,-28.69 8.6,6.74 17,12.51 28.41,14.35 9.87,1.58 20.21,2.15 30.29,2.15 17.73,0 34.63,-1.75 46.63,-2.79 9.33,-0.8 13.61,-4.44 13.61,-4.44 -1.73,17.98 -26.12,19.4 -53.65,19.4 -2.57,0 -5.17,-0.02 -7.79,-0.03 -2.62,-0.01 -5.25,-0.02 -7.88,-0.02 -2.92,0 -5.83,0.01 -8.71,0.06 -0.36,0.01 -0.71,0.01 -1.06,0.01z"/>
   <path class="fil19" d="M382.22 1267.24c0,0 14.04,10.08 15.29,15.16 1.27,5.09 5.13,17.08 5.15,19.55 0.05,6.11 3.02,14.08 1.4,14.64 -1.63,0.55 -4.82,2.03 -8.62,-9.84l1.12 13.83c0,0 0.7,4.99 -3.24,5.45 -4.23,0.5 -4.69,-3.45 -4.69,-3.45l-1.76 -5.03c0,0 -0.75,2.61 -4.01,2.46 -3.44,-0.16 -4.53,-6.1 -4.53,-6.1 0,0 -1.42,2.79 -4.5,2.17 -3.09,-0.62 -3.89,-3.2 -3.89,-3.2 0,0 -1.87,1.18 -3.39,0.58 -2.43,-0.94 -4,-6.46 -4,-6.46 0,0 -2.81,-15.81 0.56,-34.33 0,0 4.44,-18.06 19.11,-5.43z"/>
   <path class="fil29" d="M392.57 1326.11c-2.15,0 -3.15,-1.33 -3.59,-2.36 0.45,1.01 1.45,2.32 3.63,2.32 0.2,0 0.41,-0.01 0.62,-0.03 0,0.01 0,0.02 0,0.03 -0.03,0 -0.05,0.01 -0.08,0.01 -0.2,0.02 -0.4,0.03 -0.58,0.03z"/>
   <path class="fil25" d="M393.23 1326.07c0,-0.01 0,-0.02 0,-0.03 0.03,0 0.06,-0.01 0.09,-0.01 0.3,-0.04 0.58,-0.1 0.83,-0.18 -0.27,0.1 -0.58,0.18 -0.92,0.22z"/>
   <path class="fil29" d="M388.63 1322.58l0 0 -1.76 -5.03c0,0 -0.71,2.46 -3.73,2.47 3.02,-0.01 3.73,-2.47 3.73,-2.47l1.76 5.03 0 0z"/>
   <path class="fil25" d="M396.56 1320.58l-1.1 -13.57c0,0 0,0 0,0.01l1.1 13.56z"/>
   <path class="fil14" d="M374.74 1316.17c1.56,-0.01 2.59,-0.93 3.13,-1.58l0 0c-0.54,0.65 -1.57,1.57 -3.13,1.58z"/>
   <path class="fil29" d="M382.89 1320.01c-0.01,0 -0.02,0 -0.03,0 -3.44,-0.16 -4.53,-6.1 -4.53,-6.1 0,0 -0.15,0.3 -0.46,0.68l0 0c0.31,-0.38 0.46,-0.68 0.46,-0.68 0,0 1.09,5.94 4.53,6.1 0.01,0 0.02,0 0.03,0z"/>
   <path class="fil14" d="M374.71 1316.17c-0.01,0 -0.01,0 -0.01,0 0,0 0,0 0.01,0l0 0zm-0.83 -0.08c-0.02,-0.01 -0.03,-0.01 -0.05,-0.01 -3.09,-0.62 -3.89,-3.2 -3.89,-3.2 0,0 -1.19,0.75 -2.44,0.75 1.25,0 2.44,-0.75 2.44,-0.75 0,0 0.8,2.58 3.89,3.2 0.02,0 0.03,0 0.05,0.01zm-6.39 -2.46c-0.01,0 -0.01,0 -0.01,0 0,0 0,0 0.01,0l0 0zm-0.9 -0.15c-0.01,0 -0.03,-0.01 -0.04,-0.02 -2.43,-0.94 -4,-6.46 -4,-6.46l0 0c0,0 1.57,5.52 4,6.46 0.01,0.01 0.03,0.02 0.04,0.02zm-4.12 -7l-0.01 -0.06c0,0 0,0 0,0 0.01,0.02 0.01,0.04 0.01,0.06z"/>
   <path class="fil27" d="M392.61 1326.07c-2.18,0 -3.18,-1.31 -3.63,-2.32 -0.28,-0.64 -0.35,-1.17 -0.35,-1.17l0 0 -1.76 -5.03c0,0 -0.71,2.46 -3.73,2.47 -0.01,0 -0.01,0 -0.01,0l-0.01 0c-0.07,0 -0.15,0 -0.23,-0.01 -0.01,0 -0.02,0 -0.03,0 -3.44,-0.16 -4.53,-6.1 -4.53,-6.1 0,0 -0.15,0.3 -0.46,0.68 -0.54,0.65 -1.57,1.57 -3.13,1.58 -0.01,0 -0.02,0 -0.03,0 -0.01,0 -0.01,0 -0.01,0 -0.26,0 -0.53,-0.03 -0.82,-0.08 -0.02,-0.01 -0.03,-0.01 -0.05,-0.01 -3.09,-0.62 -3.89,-3.2 -3.89,-3.2 0,0 -1.19,0.75 -2.44,0.75 0,0 -0.01,0 -0.01,0 -0.01,0 -0.01,0 -0.01,0 -0.3,0 -0.6,-0.04 -0.89,-0.15 -0.01,0 -0.03,-0.01 -0.04,-0.02 -2.43,-0.94 -4,-6.46 -4,-6.46l0 0 -0.08 -0.52c0,-0.02 0,-0.04 -0.01,-0.06 1.31,3.48 3.64,4.2 5.34,4.2 1.19,0 2.08,-0.35 2.08,-0.35 1.32,1.82 3.26,2.31 4.98,2.31 2.03,0 3.74,-0.69 3.74,-0.69 1.56,1.42 3.12,1.86 4.45,1.86 2.32,0 4,-1.34 4,-1.34 0.79,0.36 1.51,0.51 2.16,0.51 3.46,0 4.95,-4.22 4.95,-4.22l-1.2 -13.71c0.74,0.41 2.44,11.67 2.5,12.02l1.1 13.57c0,0 0.44,4.17 -2.41,5.27 -0.25,0.08 -0.53,0.14 -0.83,0.18 -0.03,0 -0.06,0.01 -0.09,0.01 -0.21,0.02 -0.42,0.03 -0.62,0.03z"/>
   <path class="fil19" d="M353.75 1172.59l-0.03 -1.13 0 -0.25c0.17,-10.17 8.59,-18.47 18.75,-18.47 10.25,0 18.74,8.52 19.04,18.73 0.44,2.77 -0.65,31.92 -3.63,100.16l-25.26 4.05c-4.19,-24.92 -11.16,-76.27 -8.87,-103.09z"/>
   <path class="fil19" d="M371.87 1190.15c8.73,0 16.4,-6.14 18.3,-14.66 7.77,-26.03 32.96,-110.42 33.27,-112.01 2.32,-11.7 -5.3,-23.09 -17,-25.41 -1.39,-0.28 -2.81,-0.42 -4.23,-0.42 -10.25,0 -19.14,7.3 -21.17,17.36l-27.62 113 -0.02 0.1c-1.81,10.01 4.84,19.73 14.81,21.71 1.21,0.24 2.44,0.33 3.66,0.33z"/>
   <path class="fil22" d="M415.48 1139.33c0,0 0.96,70.45 -13.14,106.45l142.15 -15.73c0,0 -16.71,-45.75 -17.16,-90.87l-111.85 0.15z"/>
   <path class="fil22" d="M405.46 1030.04c0,0 -40.12,2.35 -41.57,71.24l53.93 7.08c0,0 32.68,-61.52 -12.36,-78.32z"/>
   <path class="fil22" d="M511.42 1039.61c0,0 -20.21,34.73 36.4,74.01l31.75 -36.48c0,0 -29.25,-65.79 -68.15,-37.53z"/>
   <path class="fil19" d="M432.43 933.33c-0.64,6.13 -6.13,10.57 -12.26,9.93 -6.13,-0.65 -10.57,-6.13 -9.93,-12.26 0.65,-6.13 6.13,-10.57 12.26,-9.93 6.13,0.64 10.58,6.13 9.93,12.26z"/>
   <path class="fil19" d="M525.59 933.33c-0.64,6.13 -6.13,10.57 -12.26,9.93 -6.13,-0.65 -10.57,-6.13 -9.93,-12.26 0.64,-6.13 6.13,-10.57 12.26,-9.93 6.13,0.64 10.58,6.13 9.93,12.26z"/>
   <path class="fil19" d="M498.19 881.27c-23.43,-26.05 -66.8,-14 -74.22,20.24 -3.33,15.36 -5.37,34.47 -1.94,53.54 7.74,42.98 35.42,60.52 65.57,45.54 30.15,-14.98 31.51,-76.33 20.8,-102.91 -2.45,-6.09 -5.92,-11.64 -10.21,-16.41z"/>
   <path class="fil19" d="M663.68 1065.24c0,0 -0.71,-9.03 1.77,-15.88 0.93,-2.58 0.82,-12.08 -1.76,-17.26 -2.47,-4.96 -4.61,-6.03 -3.33,-7.22 3.36,-3.13 8.55,-3.69 16.1,14.99l11.95 -7.44c0,0 4.28,-2.52 6.89,0.42 2.38,2.68 -0.05,5.14 -0.05,5.14 0,0 3.95,-1.23 5.85,1.38 2.01,2.76 -0.23,5.92 -0.23,5.92 0,0 1.97,-0.14 3.64,2.81 1.36,2.42 -0.06,4.99 -0.06,4.99 0,0 1.24,1.4 1.73,2.94 0.77,2.46 -0.85,5.73 -0.85,5.73 0,0 -7.98,9.95 -24.37,18.85 0,0 -20.5,6.28 -17.28,-15.37z"/>
   <path class="fil27" d="M696.01 1068.7c-5.3,-4.52 -10.46,-5.53 -14.02,-5.53 -2.87,0 -4.7,0.66 -4.7,0.66 6.16,-10.36 -0.71,-23.14 -0.71,-23.14l11.95 -7.14c0,0 -6.77,5.83 -8.75,8.07 -1.98,2.24 0.03,4.78 0.03,4.78l0.15 0.27 -0.01 -0.03c0.44,0.58 1.05,0.78 1.67,0.78 1.31,0 2.69,-0.9 2.69,-0.9l10.94 -8.53c0,0 -7.73,6.59 -10.61,9.08 -2.88,2.48 -1.76,4.52 -1.76,4.52l-0.02 -0.01c0.24,0.4 0.5,0.81 0.77,1.23 0.68,0.86 1.59,1.11 2.41,1.11 1.16,0 2.15,-0.49 2.15,-0.49l12.68 -8.14c0,0 -9.39,6.95 -12.19,8.73 -2.77,1.77 -1.23,4.47 -1.22,4.5l0.17 0.23c0.93,1.3 2.17,1.57 3.05,1.57 0.63,0 1.07,-0.14 1.07,-0.14l12.7 -7.09c0,0 -10.35,6.41 -12.14,7.62 -1.78,1.21 -0.95,3.15 -0.95,3.15 0.38,0.51 0.67,0.9 0.82,1.1 0.33,0.44 0.91,0.62 1.63,0.62 3.61,0 10.98,-4.53 10.98,-4.53 -1.29,2.23 -8.78,7.65 -8.78,7.65z"/>
   <path class="fil18" d="M516.93 914.98c0,0 -47.92,-24.25 -50.21,-51.49 0,0 52.53,-11.96 50.21,51.49z"/>
   <path class="fil18" d="M477.73 866.48c0,0 -4.86,23.99 -29.15,31.89 0,0 2.49,-6.21 2.49,-12.58 0,0 -8.97,20.8 -31.89,21.55 0,0 -3.74,-54.57 58.55,-40.86z"/>
   <path class="fil15" d="M470.9 1731.97c-96.79,0 -175.27,-9.28 -175.27,-20.73 0,-7.38 32.61,-13.85 81.7,-17.52 -0.21,3.78 -0.28,8.01 -0.16,12.67l0.25 0 0 7.58 62.83 0 0 -7.58 -1.08 0 0 0c0,0 0.27,-1.2 0.27,-2.93 0.01,-3.87 -1.3,-10.42 -9.86,-12.34 0,0 -0.03,-0.01 -0.11,-0.02 13.28,-0.38 27.16,-0.58 41.43,-0.58 1.46,0 2.91,0 4.35,0.01 -0.67,4.69 -1,10.07 -0.72,15.86l0.39 0 0 7.58 99.67 0 0 -7.58 -0.79 0 0 0c0.01,-0.02 0.22,-0.83 0.22,-2.06 0.03,-2.66 -0.84,-7.33 -6.56,-10.38 47.43,3.7 78.72,10.06 78.72,17.29 0,11.45 -78.47,20.73 -175.28,20.73z"/>
   <polygon class="fil30" points="574.59,1713.97 474.92,1713.97 474.92,1706.39 542.55,1706.39 573.8,1706.39 574.59,1706.39 "/>
   <path class="fil31" d="M542.55 1706.39l-68.02 0c-0.28,-5.79 0.05,-11.17 0.72,-15.86 20.04,0.05 39.25,0.51 57.08,1.3 -0.33,0.55 -0.16,1.27 0.39,1.61l0.62 0.18c0.39,0 0.78,-0.2 1.01,-0.56 0.24,-0.39 0.49,-0.76 0.75,-1.11 3.26,0.15 6.47,0.32 9.64,0.49 -0.82,1.95 -2.19,6.35 -2.19,13.95zm31.25 0c0.01,-0.02 0.21,-0.83 0.22,-2.06 0,1.23 -0.21,2.04 -0.22,2.06z"/>
   <path class="fil32" d="M573.8 1706.39l-31.25 0 0 0c0,-7.6 1.37,-12 2.19,-13.95 7.91,0.44 15.51,0.94 22.72,1.51 5.72,3.05 6.59,7.72 6.56,10.38 -0.01,1.23 -0.21,2.04 -0.22,2.06l0 0 0 0z"/>
   <path class="fil33" d="M533.34 1693.62l-0.62 -0.18c-0.55,-0.34 -0.72,-1.06 -0.39,-1.61 0.92,0.04 1.85,0.08 2.77,0.12 -0.26,0.35 -0.51,0.72 -0.75,1.11 -0.23,0.36 -0.62,0.56 -1.01,0.56z"/>
   <polygon class="fil30" points="440.25,1713.97 377.42,1713.97 377.42,1706.39 406.52,1706.39 439.17,1706.39 440.25,1706.39 "/>
   <path class="fil31" d="M439.17 1706.39c0,0 0.27,-1.2 0.27,-2.93 0,1.73 -0.27,2.93 -0.27,2.93zm-32.65 0l-29.35 0c-0.12,-4.66 -0.05,-8.89 0.16,-12.67 13.25,-0.99 27.72,-1.78 43.06,-2.33 -6.23,1.13 -13.42,4.68 -13.87,15z"/>
   <path class="fil32" d="M439.17 1706.39l-32.65 0 0 0c0.45,-10.32 7.64,-13.87 13.87,-15 2.99,-0.11 6.02,-0.2 9.08,-0.29 0.08,0.01 0.11,0.02 0.11,0.02 8.56,1.92 9.87,8.47 9.86,12.34 0,1.73 -0.27,2.93 -0.27,2.93l0 0z"/>
   <path class="fil15" d="M1456.33 1733.66c-96.79,0 -175.27,-9.28 -175.27,-20.73 0,-11.44 78.48,-20.72 175.27,-20.72 96.8,0 175.28,9.28 175.28,20.72 0,11.45 -78.48,20.73 -175.28,20.73z"/>
   <polygon class="fil34" points="1417.22,1677.88 1448.02,1677.88 1448.02,1642.82 1417.22,1642.82 "/>
   <path class="fil16" d="M1453.23 1494.64c-0.34,-15.93 -13.09,-26.52 -26.52,-26.52 -14.09,0 -26.53,11.48 -26.53,26.52 -0.23,7.4 15.81,163.72 15.81,163.72 15.48,0 15.06,-1.18 33.65,-1.05l3.59 -162.67z"/>
   <path class="fil16" d="M1449.68 1294.95c0,-15.96 -12.93,-28.89 -28.88,-28.89 -15.96,0 -28.89,12.93 -28.89,28.89 0,0.4 7.91,192.36 8.27,199.69 0.33,16.8 13.99,26.53 26.53,26.53 13.72,0 27.11,-11.35 26.51,-27.49l-3.54 -198.73z"/>
   <path class="fil34" d="M1411.73 1674.69c0,0 4.34,-6.57 21.06,-6.57 16.74,0 18.42,6.92 18.42,6.92l0 8.15 -39.35 0 -0.13 -8.5z"/>
   <polygon class="fil35" points="1347.11,1717.18 1459.71,1717.18 1459.71,1708.68 1347.11,1708.68 "/>
   <path class="fil36" d="M1347.55 1708.68c0,0 -5.23,-20.27 32.16,-17.16l31.76 -22.43c0,0 2.51,-2.17 4.84,0 2.34,2.17 10.69,10.1 20.87,8.76 10.18,-1.33 10.43,-7.58 14.02,-7.08 3.59,0.5 9.51,16.67 8.51,37.91l-112.16 0z"/>
   <path class="fil23" d="M1379.71 1691.55c-37.39,-3.12 -32.16,17.13 -32.16,17.13l35.31 0c0,-12.74 -3.15,-17.13 -3.15,-17.13z"/>
   <path class="fil37" d="M1398.71 1689.85c-0.45,0 -0.88,-0.22 -1.13,-0.63 -2.43,-3.92 -5.67,-5.79 -5.7,-5.81 -0.64,-0.36 -0.87,-1.18 -0.5,-1.82 0.37,-0.64 1.18,-0.86 1.83,-0.49 0.15,0.09 3.85,2.23 6.64,6.71 0.39,0.63 0.19,1.45 -0.43,1.84l-0.71 0.2z"/>
   <path class="fil37" d="M1404.16 1685.99c-0.44,0 -0.88,-0.22 -1.13,-0.63 -2.43,-3.91 -5.67,-5.79 -5.7,-5.81 -0.64,-0.36 -0.87,-1.18 -0.5,-1.81 0.37,-0.64 1.18,-0.87 1.82,-0.5 0.15,0.08 3.86,2.23 6.64,6.71 0.4,0.63 0.2,1.46 -0.42,1.85l-0.71 0.19z"/>
   <path class="fil37" d="M1409.61 1682.14c-0.44,0 -0.88,-0.23 -1.13,-0.63 -2.44,-3.92 -5.67,-5.79 -5.71,-5.81 -0.64,-0.37 -0.86,-1.18 -0.49,-1.82 0.36,-0.64 1.18,-0.86 1.82,-0.5 0.15,0.09 3.86,2.24 6.65,6.71 0.38,0.63 0.19,1.46 -0.44,1.84l-0.7 0.21z"/>
   <polygon class="fil34" points="1540.97,1677.11 1510.18,1677.99 1509.18,1642.95 1539.97,1642.06 "/>
   <path class="fil16" d="M1540.97 1493.8c-0.8,-15.92 -13.84,-26.15 -27.28,-25.76 -14.08,0.4 -26.18,12.24 -25.75,27.28 -0.02,7.39 21.24,162.82 21.24,162.82 14.66,-1.37 14.43,-1.4 31.81,-3.16l-0.02 -161.18z"/>
   <path class="fil16" d="M1531.69 1294.28c-0.46,-15.94 -13.75,-28.5 -29.7,-28.04 -15.94,0.46 -28.5,13.75 -28.04,29.69 0.01,0.41 13.42,192.07 13.99,199.39 0.81,16.78 14.74,26.11 27.28,25.75 13.72,-0.39 26.77,-12.12 25.71,-28.23l-9.24 -198.56z"/>
   <path class="fil34" d="M1503.08 1674.69c0,0 4.34,-6.57 21.07,-6.57 16.73,0 18.41,6.92 18.41,6.92l0 8.15 -39.35 0 -0.13 -8.5z"/>
   <polygon class="fil37" points="1448.03,1717.18 1552.12,1717.18 1552.12,1708.68 1448.03,1708.68 "/>
   <path class="fil36" d="M1459.69 1708.68c0,0 -1.97,-17.18 19.66,-17.64l26.17 -22.99c0,0 4.72,-3.59 10.92,-0.02 4.61,2.64 5.28,10.31 13.67,8.94 8.39,-1.36 8.6,-7.67 11.56,-7.15 2.95,0.51 11.25,15.49 10.42,38.86l-92.4 0z"/>
   <path class="fil23" d="M1467.73 1691.15c-21.62,0.45 -19.66,17.53 -19.66,17.53l36.28 0c0.04,-16.99 -16.62,-17.53 -16.62,-17.53z"/>
   <path class="fil14" d="M1501.33 1689.01l-1 -0.44c-4.78,-5.09 -11.48,-5.22 -11.54,-5.22 -0.76,-0.01 -1.36,-0.4 -1.36,-1.16 0.02,-0.75 0.62,-1.12 1.37,-1.12l0.01 0c0.33,0 7.94,-0.08 13.52,5.86 0.51,0.55 0.48,1.3 -0.07,1.82l-0.93 0.26z"/>
   <path class="fil14" d="M1506.79 1684.23l-0.99 -0.44c-4.79,-5.1 -11.49,-5.23 -11.55,-5.23 -0.75,-0.01 -1.36,-0.66 -1.35,-1.42 0.01,-0.74 0.62,-1.39 1.36,-1.39l0.02 0c0.32,0 7.94,0.2 13.51,6.13 0.51,0.56 0.49,1.44 -0.06,1.96l-0.94 0.39z"/>
   <path class="fil14" d="M1512.26 1679.44l-1 -0.43c-4.78,-5.1 -11.48,-5.23 -11.54,-5.23 -0.76,-0.01 -1.36,-0.4 -1.36,-1.15 0.01,-0.75 0.62,-1.12 1.37,-1.12l0.02 0c0.32,0 7.93,-0.08 13.5,5.86 0.52,0.55 0.49,1.3 -0.06,1.82l-0.93 0.25z"/>
   <path class="fil16" d="M1531.94 1249.8l-140.26 0 0.55 49.59c0.38,18.03 15.05,32.61 33.02,33.25l73.63 0.52c18.33,-0.5 33.06,-15.77 33.06,-34.23 0,-1.02 0,-49.13 0,-49.13z"/>
   <path class="fil20" d="M1545.01 1656.21c-1.06,0 -41.93,2.15 -41.93,2.15l-2.87 -22.49 46.59 0 -1.79 20.34z"/>
   <path class="fil20" d="M1454.12 1658.2c-1.05,0 -41.93,2.15 -41.93,2.15l-2.86 -22.49 46.59 0 -1.8 20.34z"/>
   <path class="fil25" d="M1466.42 1331.47l-0.83 -0.55c-0.03,-0.09 -4,-9.29 -8.78,-28.81 -2.52,-10.3 -2.46,-27.29 -1.79,-41.37 0.6,0 1.22,0 1.83,-0.01 -0.65,14.02 -0.74,30.93 1.72,40.95 4.74,19.35 8.64,28.43 8.68,28.52 0.2,0.46 -0.01,0.99 -0.47,1.19l-0.36 0.08z"/>
   <path class="fil25" d="M1458.29 1314.96l-0.13 -0.01c-9.06,-1.36 -12.28,-12.18 -12.41,-12.64 -3.13,-9.64 -2.97,-27.1 -2.09,-41.72 0.61,0.02 1.22,0.04 1.84,0.05 -0.87,14.53 -1.05,31.82 1.98,41.14 0.04,0.13 3.04,10.19 10.94,11.38 0.5,0.08 0.84,0.54 0.76,1.03 -0.06,0.45 -0.45,0.77 -0.89,0.77z"/>
   <path class="fil25" d="M1514.13 1274.98c-15.21,0 -21.42,-8.9 -23.97,-16.1 6.16,-0.6 12.61,-1.37 19.38,-2.32 3.36,9.01 5.62,18.41 5.62,18.41 -0.35,0 -0.69,0.01 -1.03,0.01z"/>
   <path class="fil25" d="M1407.39 1263.88c0,0 0.93,-2.91 2.31,-6.71 1.86,0.34 3.86,0.68 6.01,1 -2.06,2.44 -4.78,4.6 -8.32,5.71z"/>
   <path class="fil25" d="M1514.19 1281.39c-9.54,0 -17.18,-2.7 -22.76,-8.03 -4.44,-4.25 -6.83,-9.44 -8.1,-13.87 0.62,-0.05 1.24,-0.1 1.87,-0.15 1.24,4.12 3.47,8.88 7.49,12.71 5.23,5 12.46,7.53 21.53,7.53 0.99,0 2.01,-0.03 3.05,-0.09 0.02,0 0.04,0 0.06,0 0.48,0 0.87,0.37 0.89,0.85 0.04,0.5 -0.35,0.93 -0.84,0.96 -1.08,0.06 -2.14,0.09 -3.17,0.09 -0.01,0 -0.02,0 -0.02,0z"/>
   <path class="fil25" d="M1406.29 1269.53c-0.4,0 -0.77,-0.27 -0.87,-0.68 -0.12,-0.48 0.17,-0.97 0.65,-1.1 6.47,-1.66 10.77,-5.26 13.61,-9.03 0.66,0.09 1.35,0.17 2.03,0.25 -3.01,4.34 -7.77,8.63 -15.19,10.53l-0.23 0.03z"/>
   <path class="fil25" d="M1470.88 1329.76l-0.49 -0.14c-0.42,-0.27 -0.54,-0.83 -0.28,-1.25 0.09,-0.13 8.29,-12.79 20.26,-21.28 0.16,-0.11 0.34,-0.16 0.52,-0.16 0.29,0 0.57,0.13 0.74,0.38 0.29,0.41 0.19,0.97 -0.21,1.26 -11.69,8.27 -19.71,20.65 -19.78,20.78l-0.76 0.41z"/>
   <path class="fil25" d="M1476.21 1327.94l-0.7 -0.33c-0.32,-0.39 -0.26,-0.96 0.13,-1.28 0.16,-0.12 15.77,-12.73 35.65,-16.34 0.05,-0.02 0.11,-0.02 0.16,-0.02 0.43,0 0.81,0.3 0.89,0.74 0.09,0.49 -0.23,0.96 -0.73,1.05 -19.42,3.53 -34.68,15.85 -34.83,15.97l-0.57 0.21z"/>
   <path class="fil25" d="M1475.31 1331.47c-0.43,0 -0.81,-0.3 -0.89,-0.73 -0.1,-0.49 0.22,-0.97 0.71,-1.07 0.63,-0.12 12.16,-2.36 21.97,-2.36 2.83,0 5.52,0.19 7.76,0.66 0.49,0.1 0.8,0.58 0.7,1.08 -0.09,0.42 -0.47,0.71 -0.89,0.71 -0.06,0 -0.12,-0.01 -0.18,-0.02 -2.09,-0.44 -4.62,-0.62 -7.3,-0.62 -9.75,0 -21.56,2.3 -21.71,2.33l-0.17 0.02z"/>
   <path class="fil25" d="M1455.43 1329.76l-0.76 -0.41c-0.08,-0.13 -8.1,-12.51 -19.78,-20.78 -0.41,-0.29 -0.51,-0.85 -0.22,-1.26 0.18,-0.25 0.46,-0.38 0.74,-0.38 0.18,0 0.36,0.05 0.52,0.16 11.98,8.49 20.18,21.15 20.26,21.28 0.27,0.42 0.15,0.98 -0.27,1.25l-0.49 0.14z"/>
   <path class="fil25" d="M1450.1 1327.94l-0.58 -0.21c-0.15,-0.12 -15.42,-12.44 -34.83,-15.97 -0.49,-0.09 -0.82,-0.56 -0.73,-1.05 0.08,-0.44 0.47,-0.74 0.89,-0.74 0.06,0 0.11,0 0.16,0.02 19.88,3.61 35.5,16.22 35.65,16.34 0.39,0.32 0.45,0.89 0.14,1.28l-0.7 0.33z"/>
   <path class="fil25" d="M1451 1331.47l-0.18 -0.02c-0.15,-0.03 -11.96,-2.33 -21.7,-2.33 -2.69,0 -5.22,0.18 -7.3,0.62 -0.06,0.01 -0.12,0.02 -0.19,0.02 -0.41,0 -0.79,-0.29 -0.88,-0.71 -0.11,-0.5 0.2,-0.98 0.69,-1.08 2.24,-0.47 4.93,-0.66 7.76,-0.66 9.82,0 21.35,2.24 21.98,2.36 0.48,0.1 0.8,0.58 0.71,1.07 -0.09,0.43 -0.47,0.73 -0.89,0.73z"/>
   <path class="fil38" d="M1509.33 852.62c6.39,4.84 10.45,12.28 12.49,20.04 2.72,10.38 2.1,21.44 -0.49,31.85 -2.61,10.41 -7.14,20.24 -12.19,29.7 -0.95,1.76 -1.97,3.59 -3.65,4.67 -1.51,0.96 -3.34,1.2 -5.11,1.42 -21.28,2.65 -42.83,5.3 -64.09,2.46 -4.89,-0.66 -10.06,-1.76 -13.61,-5.2 -4.6,-4.45 -5.24,-11.5 -5.47,-17.89 -0.2,-5.66 -0.31,-11.32 -0.33,-16.98 -0.04,-12.6 -18.76,-16.02 -14.83,-28 1.51,-4.63 22.8,-18.61 26.31,-21.99 2.65,-2.54 5.98,-4.27 9.36,-5.68 11.29,-4.69 23.89,-6.14 35.95,-4.13 6.15,1.02 11.21,5.36 17.28,4.93 6.74,-0.47 12.85,0.61 18.38,4.8z"/>
   <polygon class="fil19" points="1445.9,1020.36 1489.45,1020.36 1489.45,969.37 1445.9,969.37 "/>
   <path class="fil27" d="M1455.08 1003.94c-4.08,0 -7.39,-0.32 -9.18,-0.58l0 -33.99 43.55 0 0 21.78c-8.4,10.69 -23.93,12.79 -34.37,12.79z"/>
   <path class="fil19" d="M1439.88 1014.13c0,0 25.62,-5.98 56.16,0 0,0 -7.7,17.53 -30.54,17.53 -22.83,0 -25.62,-17.53 -25.62,-17.53z"/>
   <path class="fil36" d="M1578.63 1048.67c-4.37,-15.74 -18.34,-18.22 -18.34,-18.22 0,0 -36.7,-10.2 -66.9,-16.78 0,0 -6.55,17.49 -31.16,17.09 -21.33,-0.35 -19.29,-17.09 -19.29,-17.09 -13.75,2.16 -48.51,10.29 -62.2,16.69 0,0 -14.43,4.83 -15.8,21.29 0,0 -0.2,7.42 15.41,17.65 0.94,17.35 3.18,41.34 7.95,73.65 5.56,37.69 3.38,57.46 3.28,109.51 0,0 44.61,18.7 143.07,-0.08 0,0 -3.58,-54.9 1.32,-96.36 3.94,-33.39 17.21,-65.95 19.34,-83.9l0 0.01c27.62,-11.6 23.32,-23.46 23.32,-23.46z"/>
   <path class="fil19" d="M1568.92 1043.99c-6.75,-8.57 -19.15,-10.05 -27.72,-3.31 -8.57,6.74 -10.04,19.15 -3.3,27.72 1.06,1.35 85.5,89.98 85.5,89.98 5.74,7.05 16.09,8.22 23.26,2.58 7.17,-5.64 8.47,-15.98 2.97,-23.22l-80.71 -93.75z"/>
   <path class="fil19" d="M1647.53 1160.16c6.56,-6.3 6.9,-16.71 0.7,-23.4 -6.21,-6.69 -16.85,-7.34 -23.62,-1.27 0,0 -25.2,16.48 -88.68,82.37l14.49 15.64c0,0 68,-41.55 96.24,-72.58l0.87 -0.76z"/>
   <path class="fil22" d="M1626.11 1100.55l-52.47 -60.8c-8.8,-11.05 -24.96,-12.93 -36.08,-4.16 -11.15,8.8 -13.07,25.02 -4.27,36.18 0.77,0.97 27.53,29.07 57.26,60.24 9.17,-6.83 24.21,-18.78 35.56,-31.46z"/>
   <path class="fil19" d="M1556.52 1217.6c-3.32,-9.54 -8.39,-8.04 -8.39,-8.04l-7.29 0.37c-6.34,-3.19 -9.73,-8.26 -13,-9.29 -5.9,-1.84 -7.84,-7.58 -9.1,-7.1 -2.7,1.03 -3.36,3.53 -2.17,5.81 1.69,3.27 5.67,6.31 5.67,6.31 -2.55,-0.93 -13.25,-4.17 -17.04,-4.65 -3.28,-0.41 -12.74,5.21 -13.88,5.85 -1.41,0.79 -3.41,2.16 -2.76,3.5 1.11,2.27 3.78,2.23 5.82,1.64 2.27,-0.66 7.39,-4.32 9.23,-3.84 1.08,0.29 7.64,2.25 8.15,2.45 0,0 -8.08,3.14 -11.55,4.37 -4.02,1.42 -12.42,4.87 -12.42,4.87 -6.6,4.15 1.58,6.74 1.58,6.74 -0.5,0.42 -2.14,1.88 -1.63,3.16 0.96,2.38 4.4,2.38 5.26,2.34 2.63,-0.1 10.75,-2.72 10.97,-2.7l11.77 0.37c-3.55,2.74 -5.62,4.26 -10.02,7.29 -0.74,0.51 -5.46,3.43 -5.8,4.16 -0.41,0.87 -0.05,1.66 0.74,2.05 1.66,0.81 3.7,0.75 5.58,0.12 0.91,-0.3 4.51,-1.97 6.45,-3.1 7.64,-4.46 11.92,-5.86 18.89,-0.79 10.05,7.31 21.11,-7.64 21.11,-7.64 0,0 7.15,-4.7 3.83,-14.25z"/>
   <path class="fil27" d="M1527.62 1207.61l-5.38 -1.95c6,0.7 5.38,1.95 5.38,1.95z"/>
   <path class="fil27" d="M1489.37 1226.59c14.89,-6.9 21.9,-8.18 25.06,-8.18 1.88,0 2.39,0.45 2.39,0.45 1.01,2.71 -11.38,2.5 -13.9,3.18 -2.52,0.68 -13.55,4.55 -13.55,4.55z"/>
   <path class="fil27" d="M1511.76 1210.61c1.03,-0.4 2.63,-1.65 4,-1.65 0.25,0 0.49,0.04 0.71,0.13 1.49,0.62 -4.71,1.52 -4.71,1.52z"/>
   <path class="fil19" d="M1372.73 1044.19c6.77,-8.55 19.18,-9.99 27.72,-3.23 8.55,6.76 9.99,19.18 3.22,27.73 -1.06,1.34 -85.74,89.75 -85.74,89.75 -5.77,7.02 -16.12,8.17 -23.28,2.51 -7.15,-5.66 -8.41,-16.01 -2.9,-23.23l80.98 -93.53z"/>
   <path class="fil19" d="M1292.35 1158.44c-5.85,-6.96 -5.08,-17.35 1.8,-23.34 6.88,-6 17.53,-5.51 23.62,1.25 0,0 23.3,19.07 79.39,91.37l-14.95 13.01c0,0 -64.31,-47.57 -89.08,-81.44l-0.78 -0.85z"/>
   <path class="fil22" d="M1315.38 1100.6l52.63 -60.66c8.84,-11.03 25.01,-12.86 36.1,-4.06 11.13,8.83 13,25.06 4.17,36.19 -0.78,0.97 -27.61,29 -57.43,60.08 -9.15,-6.85 -24.16,-18.84 -35.47,-31.55z"/>
   <path class="fil19" d="M1393.23 1200.05c0,0 2.6,-8.41 -1.26,-10.79 -3.67,-2.28 -6.25,13.53 -6.25,13.53l7.51 -2.74z"/>
   <path class="fil19" d="M1423.92 1213.77c-0.43,-0.31 -12.91,-6.59 -14.73,-6.99 -1.08,-0.24 -10.27,-1.16 -10.32,-1.21l6.93 -2.02c1.41,-0.41 3.4,0.45 5.54,1.32 2.23,0.89 4.62,1.79 6.68,1.25 3.68,-0.98 3.36,-3.67 1.99,-4.21 -9.43,-3.71 -11.75,-5.75 -15.09,-5.44 -5.49,0.51 -8.45,1.58 -10.59,1.92 -4.45,0.72 -6.1,0.03 -7.95,3.09 -0.14,0.24 -5.36,9.69 -8.51,29.43 -1.48,9.25 8.9,12.06 8.9,12.06 8.73,2.26 8.48,-7.52 11.94,-10.63 1.46,-1.3 8.04,4.13 10.21,5.37 2.15,1.23 5.15,2.19 6.31,1.5 2.66,-1.6 1.55,-2.82 0.29,-3.82 -1.95,-1.54 -15.47,-11.06 -15.47,-11.06 0.08,-0.52 0.22,-0.91 0.3,-1.41 0,0 6.89,2.26 10.15,3.73 2.98,1.34 8.2,3.69 10.83,2.07 2.41,-1.5 1.28,-3.45 0.44,-4.22 -1.54,-1.44 -20.27,-9.82 -20.27,-9.82 0,0 2.78,-2.03 6.63,-1.13 2.61,0.61 6.83,2.13 8.16,2.79 1.79,0.89 6.07,2.9 7.78,0.82 1.21,-1.46 0.69,-2.78 -0.15,-3.39z"/>
   <path class="fil39" d="M1399.4 1232.15c0,0 -0.01,-0.01 -0.01,-0.01 0,0 0.01,0 0.01,0 0,0.01 0,0.01 0,0.01z"/>
   <path class="fil27" d="M1399.4 1232.14c0,0 -0.01,0 -0.01,0 -4.59,-1.68 -4.62,-2.54 -4.11,-2.54 0.05,0 0.09,0.01 0.15,0.02 0.62,0.17 3.8,2.4 3.97,2.52z"/>
   <path class="fil27" d="M1394.13 1234.56c-2.49,0 -3.51,-0.4 -3.82,-0.79 -0.32,-0.4 0.06,-0.8 0.38,-0.8 0.08,0 0.16,0.03 0.22,0.09 0.62,0.59 6.05,1.37 6.05,1.37 -1.11,0.09 -2.04,0.13 -2.83,0.13z"/>
   <path class="fil39" d="M1400.05 1224.33l0 0c0.04,-0.28 0.1,-0.52 0.17,-0.76l-0.17 0.76z"/>
   <path class="fil27" d="M1400.05 1224.33c0,0 -6.72,-3.23 -6.3,-4.41 0.11,-0.3 0.35,-0.42 0.67,-0.42 1.43,0 4.57,2.46 5.93,3.42l0 0 -0.13 0.65c-0.07,0.24 -0.13,0.48 -0.17,0.76l0 0z"/>
   <path class="fil27" d="M1401.5 1214.68c0,0 -7.53,-1.45 -7.3,-3.25 0.04,-0.27 0.23,-0.39 0.53,-0.39 1.69,0 6.77,3.64 6.77,3.64z"/>
   <path class="fil27" d="M1398.87 1205.57c0,0 -5.64,-1.26 -6.04,-2.33 -0.11,-0.3 0.01,-0.45 0.32,-0.45 0.81,0 2.93,0.98 5.72,2.78z"/>
   <path class="fil19" d="M1502.6 928.67c0.92,7.03 7.37,11.99 14.4,11.08 7.03,-0.92 11.99,-7.36 11.08,-14.39 -0.92,-7.04 -7.36,-12 -14.4,-11.08 -7.03,0.91 -11.98,7.36 -11.08,14.39z"/>
   <path class="fil40" d="M1516.6 933.84c-3.34,-0.01 -6.09,-2.67 -6.18,-6.03 -0.08,-3.41 2.62,-6.24 6.03,-6.33 0.05,0 0.11,0 0.16,0 3.34,0 6.09,2.67 6.17,6.02 0.08,3.41 -2.61,6.25 -6.02,6.33 -0.06,0 -0.11,0.01 -0.16,0.01z"/>
   <path class="fil19" d="M1433.2 870.29c23.72,-27.74 69.2,-16.31 77.82,19.15 3.87,15.91 6.48,35.76 3.4,55.71 -6.94,44.96 -35.32,63.93 -67.1,49.12 -31.78,-14.82 -34.79,-78.67 -24.33,-106.63 2.4,-6.41 5.87,-12.28 10.21,-17.35z"/>
   <path class="fil38" d="M1515.23 914.18c0,0 -4.76,-0.48 -9.01,6.63 0,0 -8.15,-53.49 -29.27,-51.72 0,0 -27.82,1.12 -56.26,14.75 -24.43,11.7 -21.42,-41.83 22.39,-43.44 50.81,-1.86 45.15,3.32 45.15,3.32 0,0 48.71,-16.2 27,70.46z"/>
   <path class="fil38" d="M1494.8 877.85c0,0 4.63,-29.35 -4.46,-41.06 -9.09,-11.71 -15.6,-10.45 -21.18,-4.91 0,0 -11.22,-11.9 -18.64,-0.85 -7.41,11.04 -12.38,2.81 -16.7,-0.05 -4.32,-2.86 -16.53,-3.63 -13.04,8.1 0,0 -24.28,-14.43 -30.75,0.86 -6.47,15.28 12.84,21.48 12.84,21.48 0,0 -11.47,37.95 22.14,22.08 40.7,-19.22 69.79,-5.65 69.79,-5.65z"/>
   <path class="fil16" d="M706.87 355c-1.31,-2.5 -2.54,-5.05 -3.65,-7.58l1.91 -0.83c1.09,2.48 2.29,4.99 3.58,7.44l-1.84 0.97z"/>
   <path class="fil16" d="M970.85 310.76c-5.49,-0.61 -10.95,-0.8 -16.31,-0.56l-0.09 -2.08c5.45,-0.25 11.03,-0.05 16.63,0.57l-0.23 2.07zm-47.78 6.92l-0.9 -1.88c4.86,-2.34 10.17,-4.18 15.77,-5.47l0.47 2.03c-5.45,1.26 -10.61,3.05 -15.34,5.32zm79.31 1.24c-2.94,-1.25 -6.09,-2.41 -9.37,-3.45 -2,-0.64 -4.05,-1.23 -6.1,-1.76l0.52 -2.01c2.09,0.53 4.17,1.14 6.21,1.78 3.35,1.07 6.56,2.25 9.56,3.53l-0.82 1.91zm25.54 19.22c-2.87,-4.17 -6.68,-8 -11.34,-11.36l1.22 -1.69c4.85,3.51 8.83,7.5 11.84,11.87l-1.72 1.18zm-129.01 0.51l-1.75 -1.12c1.85,-2.89 3.99,-5.63 6.36,-8.15 1.45,-1.55 3.01,-3.06 4.64,-4.46l1.36 1.58c-1.57,1.35 -3.08,2.8 -4.49,4.3 -2.27,2.43 -4.33,5.07 -6.12,7.85zm136.82 30.63l-2.04 -0.41c0.6,-3 0.9,-6.01 0.9,-8.93 0,-2.4 -0.21,-4.78 -0.61,-7.08l2.05 -0.36c0.43,2.41 0.64,4.92 0.64,7.44 0,3.06 -0.31,6.2 -0.94,9.34zm-145.9 0.08l-2.09 -0.06c0.18,-5.74 1.03,-11.3 2.54,-16.51l2 0.57c-1.46,5.05 -2.29,10.44 -2.45,16zm377.29 1.29l-0.13 -2.08c5.5,-0.33 11.06,-0.53 16.54,-0.56l0.01 2.08c-5.43,0.04 -10.96,0.23 -16.42,0.56zm49.23 1.07c-5.4,-0.57 -10.91,-1 -16.38,-1.28l0.1 -2.07c5.51,0.27 11.06,0.7 16.5,1.28l-0.22 2.07zm-81.87 2.73l-0.34 -2.06c5.43,-0.93 10.94,-1.72 16.37,-2.35l0.24 2.07c-5.4,0.62 -10.87,1.41 -16.27,2.34zm114.27 2.67c-5.27,-1.21 -10.69,-2.28 -16.11,-3.18l0.34 -2.05c5.46,0.9 10.93,1.98 16.24,3.2l-0.47 2.03zm-146.29 4.66l-0.57 -2c5.27,-1.52 10.66,-2.91 16.01,-4.13l0.47 2.03c-5.32,1.22 -10.67,2.6 -15.91,4.1zm-476.16 0.1c-3.85,-4.06 -7.43,-8.36 -10.63,-12.77l1.69 -1.22c3.14,4.33 6.66,8.56 10.45,12.56l-1.51 1.43zm653.94 4.53c-5.07,-1.86 -10.32,-3.59 -15.59,-5.14l0.58 -2c5.32,1.57 10.62,3.31 15.73,5.18l-0.72 1.96zm-208.8 6.21l-0.78 -1.93 2.82 -1.16c4.12,-1.65 8.37,-3.25 12.63,-4.74l0.7 1.97c-4.24,1.48 -8.46,3.06 -12.55,4.71l-2.82 1.15zm-151.08 6.02l-1.53 -1.41c3.69,-3.99 6.85,-8.42 9.38,-13.19l1.84 0.98c-2.62,4.92 -5.88,9.5 -9.69,13.62zm389.89 1.06c-4.78,-2.52 -9.75,-4.93 -14.77,-7.15l0.84 -1.9c5.06,2.24 10.08,4.67 14.91,7.21l-0.98 1.84zm-516.54 2.23c-2.06,-5.23 -3.62,-10.62 -4.63,-16l2.05 -0.39c0.98,5.26 2.51,10.52 4.52,15.63l-1.94 0.76zm-141.96 1.18c-4.67,-3.1 -9.15,-6.42 -13.33,-9.89l1.34 -1.6c4.11,3.42 8.53,6.7 13.14,9.75l-1.15 1.74zm389.78 3.22l-0.92 -1.87c5.46,-2.7 10.33,-5.03 14.9,-7.14l0.88 1.9c-4.55,2.09 -9.41,4.42 -14.86,7.11zm-148.86 10.58l-0.79 -1.93c5.24,-2.15 10.11,-4.65 14.47,-7.45l1.12 1.76c-4.46,2.86 -9.44,5.43 -14.8,7.62zm445.45 0.09c-4.38,-3.18 -8.97,-6.26 -13.62,-9.15l1.1 -1.77c4.69,2.92 9.32,6.02 13.74,9.24l-1.22 1.68zm-657.06 1.56c-5.13,-2.11 -10.18,-4.47 -15.03,-7.01l0.97 -1.85c4.79,2.52 9.78,4.85 14.86,6.94l-0.8 1.92zm331.09 2.72l-0.95 -1.86 14.68 -7.52 0.95 1.85 -14.68 7.53zm-151.47 4.3l-0.36 -2.05c5.92,-1.03 11.16,-2.16 16.03,-3.44l0.53 2.02c-4.92,1.29 -10.23,2.43 -16.2,3.47zm-147.97 2.78c-1.68,-0.37 -3.36,-0.75 -5.04,-1.16 -3.68,-0.9 -7.39,-1.92 -11,-3.03l0.61 -1.99c3.58,1.1 7.24,2.11 10.89,2.99 1.65,0.41 3.32,0.79 4.98,1.15l-0.44 2.04zm115.24 1.73l-0.25 -2.07c4.87,-0.56 9.72,-1.17 14.55,-1.81l1.8 -0.23 0.27 2.06 -1.8 0.24c-4.85,0.63 -9.7,1.24 -14.57,1.81zm-82.48 2.99c-5.61,-0.44 -11.15,-1.04 -16.46,-1.8l0.3 -2.06c5.26,0.75 10.76,1.35 16.32,1.79l-0.16 2.07zm49.58 0.05l-0.13 -2.08c5.17,-0.32 10.47,-0.74 16.19,-1.27 -3.64,-3.95 -6.96,-8.31 -9.88,-12.97l1.76 -1.11c2.91,4.66 6.24,9.01 9.89,12.92l-1.53 1.42 0 0 0.17 1.79c-5.83,0.54 -11.21,0.97 -16.47,1.3zm-25.54 0.85c-2.51,0 -5.01,-0.03 -7.51,-0.08l0.04 -2.09c5.48,0.12 10.96,0.11 16.45,-0.03l0.05 2.09c-3.02,0.07 -6.03,0.11 -9.03,0.11zm213 1.86l-0.87 -1.89c4.61,-2.12 9.46,-4.44 14.86,-7.11l0.92 1.87c-5.41,2.67 -10.29,5.01 -14.91,7.13zm380.67 2.32c-3.34,-3.25 -6.74,-6.36 -10.08,-9.27 -0.69,-0.59 -1.38,-1.18 -2.07,-1.77l1.34 -1.59c0.7,0.59 1.4,1.19 2.09,1.79 3.38,2.93 6.8,6.07 10.18,9.34l-1.46 1.5zm-411.28 10.19l-0.69 -1.96c1.12,-0.39 2.24,-0.79 3.34,-1.19 3.89,-1.41 7.94,-2.98 12.02,-4.66l0.79 1.92c-4.1,1.69 -8.18,3.27 -12.1,4.7 -1.11,0.41 -2.24,0.81 -3.36,1.19zm-113.49 0.87c-3.77,-1.73 -7.45,-3.7 -10.94,-5.86 -1.21,-0.75 -2.4,-1.53 -3.56,-2.34l1.2 -1.71c1.13,0.79 2.28,1.55 3.45,2.28 3.42,2.11 7.03,4.04 10.72,5.74l-0.87 1.89zm81.46 7.57l-0.36 -2.05c5.28,-0.95 10.67,-2.15 16,-3.56l0.54 2.01c-5.39,1.43 -10.84,2.64 -16.18,3.6zm-49.57 1.55c-5.58,-0.77 -11.06,-1.91 -16.28,-3.38l0.58 -2.01c5.11,1.45 10.49,2.57 15.99,3.33l-0.29 2.06zm19.12 1.28c-0.85,0 -1.71,-0.01 -2.56,-0.02l0.03 -2.09c5.35,0.1 10.81,-0.11 16.37,-0.59l0.18 2.08c-4.74,0.41 -9.46,0.62 -14.02,0.62zm496.12 2.64c-3.77,-4.43 -7.32,-8.47 -10.89,-12.33l1.53 -1.42c3.59,3.89 7.17,7.95 10.94,12.4l-1.58 1.35zm20.53 25.73c-3.33,-4.35 -6.69,-8.7 -10.11,-13l1.62 -1.3c3.43,4.31 6.81,8.67 10.14,13.04l-1.65 1.26zm19.9 26.3l-9.93 -13.17 1.66 -1.24 9.93 13.16 -1.66 1.25zm19.87 26.33l-9.93 -13.16 1.66 -1.26 9.94 13.17 -1.67 1.25zm19.88 26.33l-9.94 -13.16 1.65 -1.26 9.94 13.17 -1.65 1.25z"/>
   <polygon class="fil16" points="1580.91,587.1 1575.89,580.44 1577.55,579.19 1582.57,585.84 "/>
   <polygon class="fil41" points="727.99,316.01 725.75,382.68 506.98,275.94 "/>
   <polygon class="fil22" points="784.81,278.18 727.99,316.01 506.98,275.94 "/>
   <polygon class="fil22" points="707.89,328.22 506.98,275.94 648.07,368.24 "/>
   <polygon class="fil42" points="725.75,382.68 707.89,328.22 668.27,354.75 "/>
   <polygon class="fil43" points="696.47,1686.29 688.5,1671.59 707.74,1661.15 707.74,1680.17 "/>
   <path class="fil44" d="M707.74 1680.17l0 -19.02 68.56 -37.21 0 19.03 -68.56 37.2zm142.02 -77.07l-35.05 0 56.42 -30.61 -15.78 -29.08 13.02 0 20.79 38.31 -39.4 21.38zm-30.72 -126.6l-16.29 -30.03 14.43 2.6 11.54 21.26c-3.94,0.82 -7.35,3.06 -9.68,6.17z"/>
   <path class="fil45" d="M868.37 1543.41l-13.02 0 -36.31 -66.91c2.33,-3.11 5.74,-5.35 9.68,-6.17l39.65 73.08z"/>
   <g style="clip-path:url(#id4)">
    <image x="773.25" y="1600.04" width="80.49" height="46.33" xlink:href="vetor001_Images\vetor001_ImgID5.png"/>
   </g>
   <polygon class="fil44" points="776.39,1452.18 748.84,1401.42 758.9,1395.96 784.53,1443.19 790.87,1444.33 "/>
   <polygon class="fil46" points="851.99,1537.21 659.3,1641.78 606.46,1544.4 799.15,1439.84 "/>
   <polygon class="fil22" points="606.46,1544.4 660.91,1414.92 799.15,1439.84 "/>
   <polygon class="fil14" points="836.82,1563.54 689.63,1643.41 593.69,1466.59 740.87,1386.72 "/>
   <polygon class="fil47" points="622.27,1497.01 625.48,1502.92 752.39,1434.05 749.18,1428.14 "/>
   <polygon class="fil47" points="631.97,1514.88 758.88,1446.01 755.67,1440.1 628.76,1508.97 "/>
   <polygon class="fil47" points="638.46,1526.84 765.37,1457.98 762.16,1452.06 635.25,1520.93 "/>
   <polygon class="fil47" points="644.95,1538.8 771.86,1469.94 768.65,1464.02 641.74,1532.89 "/>
   <polygon class="fil47" points="651.44,1550.76 778.35,1481.9 775.15,1475.98 648.23,1544.85 "/>
   <polygon class="fil47" points="753.44,1504.1 655.08,1557.48 658.29,1563.39 756.65,1510.01 "/>
   <polygon class="fil22" points="606.46,1544.4 678.44,1677.05 871.13,1572.49 799.15,1439.84 745.43,1570.69 "/>
   <polygon class="fil22" points="678.44,1677.05 732.89,1547.58 871.13,1572.49 "/>
   <polygon class="fil48" points="678.44,1677.05 719.86,1565.85 724.82,1566.79 "/>
   <polygon class="fil48" points="678.44,1677.05 678.44,1677.05 724.82,1566.79 724.84,1566.79 "/>
   <polygon class="fil48" points="871.13,1572.49 753.4,1551.27 753.97,1549.89 755.32,1546.61 "/>
   <path class="fil43" d="M679.87 813.61l0 -14.6c10.12,-4.57 19.45,-10.29 27.87,-16.95l0 17c-8.52,5.82 -17.84,10.73 -27.87,14.55z"/>
   <path class="fil44" d="M707.74 799.06l0 -17c43.11,-34.09 62.38,-92.79 43.82,-147.87 -2.96,-8.78 -6.74,-17.05 -11.23,-24.76 7.87,10.78 14.25,22.94 18.73,36.25 19.59,58.17 -3.01,120.39 -51.32,153.38z"/>
   <path class="fil6" d="M751.56 634.19c23.63,70.1 -14.05,146.08 -84.14,169.71 -70.1,23.63 -146.09,-14.04 -169.72,-84.14 -23.62,-70.1 14.05,-146.08 84.15,-169.71 70.09,-23.63 146.08,14.04 169.71,84.14z"/>
   <path class="fil6" d="M740.5 641.7c20.91,62.03 -12.43,129.27 -74.45,150.17 -62.03,20.91 -129.27,-12.42 -150.18,-74.45 -20.9,-62.03 12.43,-129.26 74.45,-150.17 62.04,-20.91 129.27,12.42 150.18,74.45z"/>
   <path class="fil49" d="M564.81 779.72c-24.07,-13.91 -43.38,-36.31 -52.96,-64.73 -0.27,-0.8 -0.49,-1.6 -0.74,-2.4 4.87,13.53 11.96,25.63 20.73,36.06 8.99,12.54 20.24,23.03 32.97,31.07z"/>
   <path class="fil8" d="M624.15 795.69c-21.05,0 -41.5,-5.66 -59.34,-15.97 -12.73,-8.04 -23.98,-18.53 -32.97,-31.07 22.41,26.65 55.74,42.28 90.73,42.28 12.54,0 25.3,-2.01 37.85,-6.24 60.82,-20.5 94.02,-85.55 75.57,-146.55 0.15,0.32 0.29,0.63 0.42,0.95 0.03,0.06 0.05,0.12 0.07,0.19 20.91,62.02 -12.43,129.26 -74.46,150.17 -12.55,4.23 -25.31,6.24 -37.87,6.24z"/>
   <path class="fil8" d="M514.11 719.75c-0.62,-1.62 -1.23,-3.25 -1.79,-4.91 -20.91,-62.03 12.42,-129.27 74.45,-150.18 12.56,-4.23 25.32,-6.24 37.87,-6.24 26.03,0 51.14,8.64 71.52,24.04 -19.71,-13.78 -43.43,-21.45 -67.96,-21.45 -12.55,0 -25.32,2.01 -37.88,6.24 -49.65,16.74 -80.92,63.17 -80.69,112.85 -0.75,13.06 0.66,26.44 4.48,39.65z"/>
   <path class="fil8" d="M509.63 680.1c-0.23,-49.68 31.04,-96.11 80.69,-112.85 12.56,-4.23 25.33,-6.24 37.88,-6.24 24.53,0 48.25,7.67 67.96,21.45 18.35,13.86 32.88,33.21 40.78,56.66 0.57,1.66 1.07,3.33 1.55,5 -0.65,-1.7 -1.35,-3.38 -2.08,-5.03 -0.25,-0.73 -0.53,-1.45 -0.8,-2.17 0.13,0.41 0.26,0.81 0.38,1.22 -19.4,-43.12 -62.28,-69.8 -108.01,-69.8 -12.55,0 -25.31,2.01 -37.86,6.24 -47.21,15.91 -77.78,58.66 -80.49,105.52z"/>
   <path class="fil50" d="M736.41 639.09c-0.13,-0.32 -0.27,-0.63 -0.42,-0.95 -0.12,-0.41 -0.25,-0.81 -0.38,-1.22 0.27,0.72 0.55,1.44 0.8,2.17z"/>
   <polygon class="fil8" points="625.29,744.28 563.81,692.73 575.82,678.4 620.77,716.11 684.56,613.33 700.44,623.18 "/>
   <polygon class="fil14" points="622.55,737.58 561.08,686.03 573.09,671.71 618.04,709.41 681.83,606.63 697.71,616.48 "/>
  </g>
 </g>
</svg>
